G04 Layer_Color=65535*
%FSLAX43Y43*%
%MOMM*%
G71*
G01*
G75*
%ADD13C,0.254*%
D13*
X114658Y89038D02*
X116817D01*
X114658Y87238D02*
X116817D01*
X106403Y89038D02*
X108562D01*
X106403Y87238D02*
X108562D01*
X97922Y89165D02*
X100081D01*
X97922Y87365D02*
X100081D01*
X89639Y89165D02*
X91798D01*
X89639Y87365D02*
X91798D01*
X81412Y88911D02*
X83571D01*
X81412Y87111D02*
X83571D01*
X72621Y88911D02*
X74780D01*
X72621Y87111D02*
X74780D01*
X64620Y88911D02*
X66779D01*
X64620Y87111D02*
X66779D01*
X56111Y88911D02*
X58270D01*
X56111Y87111D02*
X58270D01*
X72639Y78475D02*
X74798D01*
X72639Y80275D02*
X74798D01*
X56030Y78602D02*
X58189D01*
X56030Y80402D02*
X58189D01*
X98039Y78729D02*
X100198D01*
X98039Y80529D02*
X100198D01*
X114549Y78602D02*
X116708D01*
X114549Y80402D02*
X116708D01*
X81529Y78475D02*
X83688D01*
X81529Y80275D02*
X83688D01*
X64412Y78475D02*
X66571D01*
X64412Y80275D02*
X66571D01*
X89685Y78729D02*
X91844D01*
X89685Y80529D02*
X91844D01*
X106322Y78602D02*
X108481D01*
X106322Y80402D02*
X108481D01*
X82296Y85852D02*
Y84328D01*
X83058D01*
X83312Y84582D01*
Y84836D01*
X83058Y85090D01*
X82296D01*
X83058D01*
X83312Y85344D01*
Y85598D01*
X83058Y85852D01*
X82296D01*
X83820D02*
X84327D01*
X84073D01*
Y84328D01*
X83820D01*
X84327D01*
X85089D02*
Y85852D01*
X85851D01*
X86105Y85598D01*
Y85090D01*
X85851Y84836D01*
X85089D01*
X85597D02*
X86105Y84328D01*
X87374Y85852D02*
X86867D01*
X86613Y85598D01*
Y84582D01*
X86867Y84328D01*
X87374D01*
X87628Y84582D01*
Y85598D01*
X87374Y85852D01*
X88136Y84328D02*
Y85852D01*
X88644Y85344D01*
X89152Y85852D01*
Y84328D01*
X90675Y85852D02*
X89660D01*
Y84328D01*
X90675D01*
X89660Y85090D02*
X90167D01*
X91183Y85852D02*
Y84328D01*
X91945D01*
X92199Y84582D01*
Y85598D01*
X91945Y85852D01*
X91183D01*
X95246Y84328D02*
X94230D01*
X95246Y85344D01*
Y85598D01*
X94992Y85852D01*
X94484D01*
X94230Y85598D01*
X95754D02*
X96008Y85852D01*
X96515D01*
X96769Y85598D01*
Y84582D01*
X96515Y84328D01*
X96008D01*
X95754Y84582D01*
Y85598D01*
X97277Y84328D02*
X97785D01*
X97531D01*
Y85852D01*
X97277Y85598D01*
X98547Y85852D02*
X99562D01*
Y85598D01*
X98547Y84582D01*
Y84328D01*
X100070D02*
Y84582D01*
X100324D01*
Y84328D01*
X100070D01*
X114427Y89281D02*
Y90805D01*
X115189D01*
X115443Y90551D01*
Y90043D01*
X115189Y89789D01*
X114427D01*
X114935D02*
X115443Y89281D01*
X115951D02*
X116458D01*
X116204D01*
Y90805D01*
X115951Y90551D01*
X118236Y89281D02*
X117220D01*
X118236Y90297D01*
Y90551D01*
X117982Y90805D01*
X117474D01*
X117220Y90551D01*
X106172Y89281D02*
Y90805D01*
X106934D01*
X107188Y90551D01*
Y90043D01*
X106934Y89789D01*
X106172D01*
X106680D02*
X107188Y89281D01*
X108457D02*
Y90805D01*
X107696Y90043D01*
X108711D01*
X97409Y89408D02*
Y90932D01*
X98171D01*
X98425Y90678D01*
Y90170D01*
X98171Y89916D01*
X97409D01*
X97917D02*
X98425Y89408D01*
X98933D02*
X99440D01*
X99186D01*
Y90932D01*
X98933Y90678D01*
X100964Y89408D02*
Y90932D01*
X100202Y90170D01*
X101218D01*
X89535Y89408D02*
Y90932D01*
X90297D01*
X90551Y90678D01*
Y90170D01*
X90297Y89916D01*
X89535D01*
X90043D02*
X90551Y89408D01*
X92074Y90932D02*
X91566Y90678D01*
X91059Y90170D01*
Y89662D01*
X91312Y89408D01*
X91820D01*
X92074Y89662D01*
Y89916D01*
X91820Y90170D01*
X91059D01*
X81153Y89281D02*
Y90805D01*
X81915D01*
X82169Y90551D01*
Y90043D01*
X81915Y89789D01*
X81153D01*
X81661D02*
X82169Y89281D01*
X82677D02*
X83184D01*
X82930D01*
Y90805D01*
X82677Y90551D01*
X83946Y89281D02*
X84454D01*
X84200D01*
Y90805D01*
X83946Y90551D01*
X72390Y89281D02*
Y90805D01*
X73152D01*
X73406Y90551D01*
Y90043D01*
X73152Y89789D01*
X72390D01*
X72898D02*
X73406Y89281D01*
X73914D02*
X74421D01*
X74167D01*
Y90805D01*
X73914Y90551D01*
X75183Y89535D02*
X75437Y89281D01*
X75945D01*
X76199Y89535D01*
Y90551D01*
X75945Y90805D01*
X75437D01*
X75183Y90551D01*
Y90297D01*
X75437Y90043D01*
X76199D01*
X64516Y89281D02*
Y90805D01*
X65278D01*
X65532Y90551D01*
Y90043D01*
X65278Y89789D01*
X64516D01*
X65024D02*
X65532Y89281D01*
X66040Y89535D02*
X66293Y89281D01*
X66801D01*
X67055Y89535D01*
Y90551D01*
X66801Y90805D01*
X66293D01*
X66040Y90551D01*
Y90297D01*
X66293Y90043D01*
X67055D01*
X55626Y89281D02*
Y90805D01*
X56388D01*
X56642Y90551D01*
Y90043D01*
X56388Y89789D01*
X55626D01*
X56134D02*
X56642Y89281D01*
X57150D02*
X57657D01*
X57403D01*
Y90805D01*
X57150Y90551D01*
X58419Y90805D02*
X59435D01*
Y90551D01*
X58419Y89535D01*
Y89281D01*
X72490Y81162D02*
Y82685D01*
X73251D01*
X73505Y82431D01*
Y81923D01*
X73251Y81669D01*
X72490D01*
X72997D02*
X73505Y81162D01*
X74013D02*
X74521D01*
X74267D01*
Y82685D01*
X74013Y82431D01*
X75283D02*
X75537Y82685D01*
X76044D01*
X76298Y82431D01*
Y82177D01*
X76044Y81923D01*
X76298Y81669D01*
Y81416D01*
X76044Y81162D01*
X75537D01*
X75283Y81416D01*
Y81669D01*
X75537Y81923D01*
X75283Y82177D01*
Y82431D01*
X75537Y81923D02*
X76044D01*
X55903Y81289D02*
Y82812D01*
X56665D01*
X56919Y82558D01*
Y82050D01*
X56665Y81796D01*
X55903D01*
X56411D02*
X56919Y81289D01*
X57427D02*
X57935D01*
X57681D01*
Y82812D01*
X57427Y82558D01*
X59712Y82812D02*
X59204Y82558D01*
X58696Y82050D01*
Y81543D01*
X58950Y81289D01*
X59458D01*
X59712Y81543D01*
Y81796D01*
X59458Y82050D01*
X58696D01*
X97890Y81416D02*
Y82939D01*
X98651D01*
X98905Y82685D01*
Y82177D01*
X98651Y81923D01*
X97890D01*
X98397D02*
X98905Y81416D01*
X99413D02*
X99921D01*
X99667D01*
Y82939D01*
X99413Y82685D01*
X101698Y82939D02*
X100683D01*
Y82177D01*
X101191Y82431D01*
X101444D01*
X101698Y82177D01*
Y81670D01*
X101444Y81416D01*
X100937D01*
X100683Y81670D01*
X114400Y81289D02*
Y82812D01*
X115161D01*
X115415Y82558D01*
Y82050D01*
X115161Y81796D01*
X114400D01*
X114907D02*
X115415Y81289D01*
X115923D02*
X116431D01*
X116177D01*
Y82812D01*
X115923Y82558D01*
X117193D02*
X117447Y82812D01*
X117954D01*
X118208Y82558D01*
Y82304D01*
X117954Y82050D01*
X117701D01*
X117954D01*
X118208Y81796D01*
Y81543D01*
X117954Y81289D01*
X117447D01*
X117193Y81543D01*
X81380Y81162D02*
Y82685D01*
X82141D01*
X82395Y82431D01*
Y81923D01*
X82141Y81669D01*
X81380D01*
X81887D02*
X82395Y81162D01*
X82903D02*
X83411D01*
X83157D01*
Y82685D01*
X82903Y82431D01*
X84173D02*
X84427Y82685D01*
X84934D01*
X85188Y82431D01*
Y81416D01*
X84934Y81162D01*
X84427D01*
X84173Y81416D01*
Y82431D01*
X64285Y81162D02*
Y82685D01*
X65047D01*
X65301Y82431D01*
Y81923D01*
X65047Y81669D01*
X64285D01*
X64793D02*
X65301Y81162D01*
X65809Y82431D02*
X66063Y82685D01*
X66571D01*
X66825Y82431D01*
Y82177D01*
X66571Y81923D01*
X66825Y81669D01*
Y81416D01*
X66571Y81162D01*
X66063D01*
X65809Y81416D01*
Y81669D01*
X66063Y81923D01*
X65809Y82177D01*
Y82431D01*
X66063Y81923D02*
X66571D01*
X89558Y81416D02*
Y82939D01*
X90320D01*
X90574Y82685D01*
Y82177D01*
X90320Y81923D01*
X89558D01*
X90066D02*
X90574Y81416D01*
X91082Y82939D02*
X92098D01*
Y82685D01*
X91082Y81670D01*
Y81416D01*
X106173Y81289D02*
Y82812D01*
X106934D01*
X107188Y82558D01*
Y82050D01*
X106934Y81796D01*
X106173D01*
X106680D02*
X107188Y81289D01*
X108712Y82812D02*
X107696D01*
Y82050D01*
X108204Y82304D01*
X108458D01*
X108712Y82050D01*
Y81543D01*
X108458Y81289D01*
X107950D01*
X107696Y81543D01*
M02*
