G04 Layer_Color=32896*
%FSLAX43Y43*%
%MOMM*%
G71*
G01*
G75*
%ADD13C,0.254*%
D13*
X74039Y88400D02*
X74293Y88654D01*
X74801D01*
X75055Y88400D01*
Y88146D01*
X74801Y87892D01*
X74293D01*
X74039Y87638D01*
Y87385D01*
X74293Y87131D01*
X74801D01*
X75055Y87385D01*
X72516Y88654D02*
X73531D01*
Y87892D01*
X73024D01*
X73531D01*
Y87131D01*
X72008Y88654D02*
Y87131D01*
Y87892D01*
X70992D01*
Y88654D01*
Y87131D01*
X70484Y88400D02*
X70231Y88654D01*
X69723D01*
X69469Y88400D01*
Y88146D01*
X69723Y87892D01*
X69469Y87638D01*
Y87385D01*
X69723Y87131D01*
X70231D01*
X70484Y87385D01*
Y87638D01*
X70231Y87892D01*
X70484Y88146D01*
Y88400D01*
X70231Y87892D02*
X69723D01*
X57402Y88400D02*
X57656Y88654D01*
X58164D01*
X58418Y88400D01*
Y88146D01*
X58164Y87892D01*
X57656D01*
X57402Y87638D01*
Y87385D01*
X57656Y87131D01*
X58164D01*
X58418Y87385D01*
X55879Y88654D02*
X56894D01*
Y87892D01*
X56387D01*
X56894D01*
Y87131D01*
X55371Y88654D02*
Y87131D01*
Y87892D01*
X54355D01*
Y88654D01*
Y87131D01*
X53847Y88654D02*
X52832D01*
Y88400D01*
X53847Y87385D01*
Y87131D01*
X65911Y88400D02*
X66165Y88654D01*
X66673D01*
X66927Y88400D01*
Y88146D01*
X66673Y87892D01*
X66165D01*
X65911Y87638D01*
Y87385D01*
X66165Y87131D01*
X66673D01*
X66927Y87385D01*
X64388Y88654D02*
X65403D01*
Y87892D01*
X64896D01*
X65403D01*
Y87131D01*
X63880Y88654D02*
Y87131D01*
Y87892D01*
X62864D01*
Y88654D01*
Y87131D01*
X62356Y88400D02*
X62103Y88654D01*
X61595D01*
X61341Y88400D01*
Y88146D01*
X61595Y87892D01*
X61849D01*
X61595D01*
X61341Y87638D01*
Y87385D01*
X61595Y87131D01*
X62103D01*
X62356Y87385D01*
X91057Y88502D02*
X91311Y88756D01*
X91819D01*
X92073Y88502D01*
Y88248D01*
X91819Y87994D01*
X91311D01*
X91057Y87740D01*
Y87486D01*
X91311Y87232D01*
X91819D01*
X92073Y87486D01*
X89534Y88756D02*
X90549D01*
Y87994D01*
X90042D01*
X90549D01*
Y87232D01*
X89026Y88756D02*
Y87232D01*
Y87994D01*
X88010D01*
Y88756D01*
Y87232D01*
X86487D02*
X87502D01*
X86487Y88248D01*
Y88502D01*
X86741Y88756D01*
X87249D01*
X87502Y88502D01*
M02*
