M48
;Layer_Color=9474304
;FILE_FORMAT=4:3
METRIC,LZ
;TYPE=PLATED
T1F00S00C0.711
%
T01
X0054356Y0078105
X0064643Y007874
X006731Y0083439
X0069291Y0083312
X0070866
X0068291Y0084836
X0065278Y0089916
X006604Y009144
X0064389Y0092964
X0059436Y0093472
X0061087Y0090297
X0057023Y009017
X0055245Y0092202
X0055118Y0094107
X0054483Y0107045
X0061214Y0107696
X0058293Y0111125
X0059944Y0114046
X0072644Y01143
X0070687Y0110819
X0073279Y0108585
X0078359Y0107188
X0078232Y0105283
X0072136Y0101346
X0069977Y0100076
X006858Y0098933
X0073406Y0098171
X0074168Y0094361
X0069291Y0093802
X0059817Y0081661
M30
