G04 Layer_Physical_Order=1*
G04 Layer_Color=255*
%FSLAX43Y43*%
%MOMM*%
G71*
G01*
G75*
%ADD10O,0.600X2.050*%
%ADD11R,1.500X1.200*%
%ADD12R,0.800X0.900*%
%ADD13R,0.900X1.000*%
%ADD14R,1.100X1.250*%
%ADD15R,1.300X2.000*%
%ADD16R,1.500X0.400*%
%ADD17R,0.900X0.800*%
%ADD18R,0.800X1.600*%
%ADD19R,2.200X2.700*%
%ADD20R,2.000X5.500*%
%ADD21R,1.250X1.100*%
%ADD22R,0.600X4.200*%
%ADD23R,0.600X2.000*%
%ADD24R,1.000X1.000*%
%ADD25P,1.624X8X292.5*%
%ADD26R,0.600X1.500*%
%ADD27R,1.500X1.500*%
%ADD28C,0.200*%
%ADD29C,0.300*%
%ADD30C,0.400*%
%ADD31C,1.270*%
G36*
X69620Y91165D02*
Y88690D01*
X69617Y88687D01*
X69506Y88522D01*
X69467Y88327D01*
Y86877D01*
X69506Y86682D01*
X69548Y86619D01*
X69457Y86527D01*
X69429Y86546D01*
X69312Y86569D01*
X69312Y86569D01*
X69237D01*
X69190Y86657D01*
X69181Y86696D01*
X69217Y86877D01*
Y88327D01*
X69178Y88522D01*
X69067Y88687D01*
X69013Y88724D01*
Y89916D01*
X68990Y90033D01*
X68923Y90132D01*
X67399Y91656D01*
X67300Y91723D01*
X67183Y91746D01*
X67183Y91746D01*
X66817D01*
X66769Y91861D01*
X66636Y92036D01*
X66461Y92169D01*
X66258Y92254D01*
X66040Y92282D01*
X65822Y92254D01*
X65619Y92169D01*
X65444Y92036D01*
X65311Y91861D01*
X65226Y91658D01*
X65198Y91440D01*
X65226Y91222D01*
X65311Y91019D01*
X65427Y90867D01*
X65399Y90788D01*
X65365Y90747D01*
X65278Y90758D01*
X65060Y90730D01*
X64857Y90645D01*
X64682Y90512D01*
X64549Y90337D01*
X64464Y90134D01*
X64436Y89916D01*
X64464Y89698D01*
X64549Y89495D01*
X64682Y89320D01*
X64857Y89187D01*
X65060Y89102D01*
X65278Y89074D01*
X65496Y89102D01*
X65699Y89187D01*
X65874Y89320D01*
X66007Y89495D01*
X66055Y89610D01*
X66802D01*
X67131Y89281D01*
Y88724D01*
X67077Y88687D01*
X66966Y88522D01*
X66927Y88327D01*
Y86877D01*
X66963Y86696D01*
X66954Y86657D01*
X66907Y86569D01*
X66697D01*
X66650Y86657D01*
X66641Y86696D01*
X66677Y86877D01*
Y88327D01*
X66638Y88522D01*
X66527Y88687D01*
X66362Y88798D01*
X66167Y88837D01*
X65972Y88798D01*
X65807Y88687D01*
X65696Y88522D01*
X65657Y88327D01*
Y86877D01*
X65696Y86682D01*
X65807Y86517D01*
X65863Y86479D01*
X65884Y86370D01*
X65934Y86296D01*
X65892Y86169D01*
X65521D01*
X65250Y86440D01*
X65257Y86517D01*
X65368Y86682D01*
X65407Y86877D01*
Y88327D01*
X65368Y88522D01*
X65257Y88687D01*
X65092Y88798D01*
X64897Y88837D01*
X64702Y88798D01*
X64537Y88687D01*
X64426Y88522D01*
X64387Y88327D01*
Y86877D01*
X64426Y86682D01*
X64537Y86517D01*
X64552Y86506D01*
X64514Y86379D01*
X64102D01*
X64080Y86407D01*
X64045Y86506D01*
X64149Y86661D01*
X64192Y86877D01*
Y87475D01*
X63627D01*
X63062D01*
Y86877D01*
X63105Y86661D01*
X63228Y86478D01*
X63321Y86415D01*
Y86155D01*
X63321Y86155D01*
X63344Y86038D01*
X63353Y86025D01*
Y85852D01*
X64057D01*
X64761D01*
Y85897D01*
X64878Y85946D01*
X65178Y85647D01*
X65178Y85647D01*
X65277Y85580D01*
X65394Y85557D01*
X65394Y85557D01*
X67662D01*
X67688Y85479D01*
X67694Y85430D01*
X67562Y85257D01*
X67477Y85054D01*
X67449Y84836D01*
X67477Y84618D01*
X67562Y84415D01*
X67605Y84358D01*
X67531Y84257D01*
X67526Y84253D01*
X67310Y84281D01*
X67092Y84253D01*
X66889Y84168D01*
X66714Y84035D01*
X66581Y83860D01*
X66496Y83657D01*
X66468Y83439D01*
X66496Y83221D01*
X66502Y83209D01*
X66394Y83137D01*
X64605Y84925D01*
X64577Y84944D01*
X64616Y85071D01*
X64761D01*
Y85598D01*
X64057D01*
X63353D01*
Y85071D01*
X63249Y85015D01*
X63048D01*
X63007Y85125D01*
X63007D01*
Y86325D01*
X62714D01*
Y86514D01*
X62717Y86517D01*
X62828Y86682D01*
X62867Y86877D01*
Y88327D01*
X62828Y88522D01*
X62717Y88687D01*
X62714Y88690D01*
Y89027D01*
X62687Y89164D01*
X62609Y89279D01*
X61874Y90015D01*
X61901Y90079D01*
X61929Y90297D01*
X61901Y90515D01*
X61816Y90718D01*
X61683Y90893D01*
X61508Y91026D01*
X61444Y91053D01*
Y92308D01*
X62886Y93750D01*
X63745D01*
X63788Y93623D01*
X63755Y93598D01*
X63612Y93412D01*
X63523Y93196D01*
X63509Y93091D01*
X65269D01*
X65255Y93196D01*
X65166Y93412D01*
X65023Y93598D01*
X64990Y93623D01*
X65033Y93750D01*
X67035D01*
X69620Y91165D01*
D02*
G37*
G36*
X78014Y104469D02*
X78209Y104444D01*
X78251Y104414D01*
X78315Y104324D01*
X78313Y104316D01*
X78313Y104316D01*
Y104118D01*
X77715D01*
Y102991D01*
X78619D01*
Y102864D01*
X78746D01*
Y101610D01*
X79523D01*
X79552Y101495D01*
Y77095D01*
X72845D01*
Y79121D01*
X72291D01*
X71737D01*
Y77095D01*
X61845D01*
Y79121D01*
X61291D01*
X60737D01*
Y77095D01*
X54467D01*
X54459Y77222D01*
X54588Y77239D01*
X54804Y77328D01*
X54990Y77471D01*
X55133Y77657D01*
X55222Y77873D01*
X55236Y77978D01*
X53476D01*
X53490Y77873D01*
X53579Y77657D01*
X53722Y77471D01*
X53908Y77328D01*
X54124Y77239D01*
X54253Y77222D01*
X54245Y77095D01*
X51792D01*
Y86571D01*
X51909Y86620D01*
X52103Y86426D01*
X53053D01*
X53189Y86562D01*
X54102D01*
X54102Y86562D01*
X54219Y86585D01*
X54296Y86637D01*
X54377Y86517D01*
X54431Y86480D01*
Y83783D01*
X54037D01*
Y82383D01*
X55437D01*
Y83783D01*
X55043D01*
Y86480D01*
X55097Y86517D01*
X55208Y86682D01*
X55247Y86877D01*
Y88327D01*
X55208Y88522D01*
X55097Y88687D01*
X54932Y88798D01*
X54737Y88837D01*
X54542Y88798D01*
X54377Y88687D01*
X54266Y88522D01*
X54227Y88327D01*
Y87426D01*
X53975Y87174D01*
X53528D01*
Y87851D01*
X53053Y88326D01*
X52103D01*
X51909Y88132D01*
X51792Y88181D01*
Y88857D01*
X51909Y88906D01*
X52103Y88712D01*
X53053D01*
X53528Y89187D01*
Y89991D01*
X54102D01*
X54102Y89991D01*
X54219Y90014D01*
X54318Y90081D01*
X54864Y90626D01*
X55245D01*
X55918Y89954D01*
X56017Y89887D01*
X56134Y89864D01*
X56246D01*
X56294Y89749D01*
X56427Y89574D01*
X56602Y89441D01*
X56805Y89356D01*
X57023Y89328D01*
X57241Y89356D01*
X57444Y89441D01*
X57619Y89574D01*
X57752Y89749D01*
X57837Y89952D01*
X57865Y90170D01*
X57837Y90388D01*
X57752Y90591D01*
X57619Y90766D01*
X57444Y90899D01*
X57241Y90984D01*
X57023Y91012D01*
X56805Y90984D01*
X56602Y90899D01*
X56427Y90766D01*
X56307Y90609D01*
X56215Y90575D01*
X56170Y90567D01*
X55588Y91148D01*
X55489Y91215D01*
X55372Y91238D01*
X55363Y91247D01*
X55407Y91381D01*
X55463Y91388D01*
X55666Y91473D01*
X55841Y91606D01*
X55974Y91781D01*
X56059Y91984D01*
X56087Y92202D01*
X56059Y92420D01*
X55974Y92623D01*
X55841Y92798D01*
X55666Y92931D01*
X55463Y93016D01*
X55245Y93044D01*
X55027Y93016D01*
X54824Y92931D01*
X54649Y92798D01*
X54516Y92623D01*
X54468Y92508D01*
X53443D01*
X53053Y92898D01*
X52103D01*
X51909Y92704D01*
X51792Y92753D01*
Y93429D01*
X51909Y93478D01*
X52103Y93284D01*
X53053D01*
X53528Y93759D01*
Y94679D01*
X54490Y95641D01*
X54542Y95606D01*
X54737Y95567D01*
X54899Y95599D01*
X55414Y95084D01*
X55355Y94982D01*
X55345Y94974D01*
X55245Y94987D01*
Y94234D01*
X55998D01*
X55985Y94334D01*
X55993Y94344D01*
X56095Y94403D01*
X60251Y90247D01*
X60273Y90079D01*
X60358Y89876D01*
X60491Y89701D01*
X60666Y89568D01*
X60869Y89483D01*
X61087Y89455D01*
X61305Y89483D01*
X61369Y89510D01*
X62000Y88879D01*
Y88690D01*
X61997Y88687D01*
X61886Y88522D01*
X61847Y88327D01*
Y86877D01*
X61886Y86682D01*
X61997Y86517D01*
X62000Y86514D01*
Y86325D01*
X61707D01*
Y85209D01*
X61580Y85157D01*
X61393Y85344D01*
Y86480D01*
X61447Y86517D01*
X61558Y86682D01*
X61597Y86877D01*
Y88327D01*
X61558Y88522D01*
X61447Y88687D01*
X61282Y88798D01*
X61087Y88837D01*
X60892Y88798D01*
X60727Y88687D01*
X60616Y88522D01*
X60577Y88327D01*
Y86877D01*
X60616Y86682D01*
X60727Y86517D01*
X60781Y86480D01*
Y85217D01*
X60781Y85217D01*
X60804Y85100D01*
X60871Y85001D01*
X61185Y84686D01*
X61137Y84569D01*
X60771D01*
X60250Y85090D01*
Y86625D01*
X60288Y86682D01*
X60327Y86877D01*
Y88327D01*
X60288Y88522D01*
X60177Y88687D01*
X60012Y88798D01*
X59817Y88837D01*
X59622Y88798D01*
X59457Y88687D01*
X59346Y88522D01*
X59307Y88327D01*
Y86877D01*
X59346Y86682D01*
X59457Y86517D01*
X59622Y86406D01*
X59638Y86403D01*
Y84963D01*
X59638Y84963D01*
X59661Y84846D01*
X59728Y84747D01*
X60188Y84286D01*
X60140Y84169D01*
X59266D01*
X58980Y84455D01*
Y86625D01*
X59018Y86682D01*
X59057Y86877D01*
Y88327D01*
X59018Y88522D01*
X58907Y88687D01*
X58742Y88798D01*
X58547Y88837D01*
X58352Y88798D01*
X58187Y88687D01*
X58076Y88522D01*
X58037Y88327D01*
Y86877D01*
X58076Y86682D01*
X58187Y86517D01*
X58352Y86406D01*
X58368Y86403D01*
Y84328D01*
X58368Y84328D01*
X58391Y84211D01*
X58458Y84112D01*
X58707Y83862D01*
X58659Y83745D01*
X58166D01*
X57710Y84201D01*
Y86625D01*
X57748Y86682D01*
X57787Y86877D01*
Y88327D01*
X57748Y88522D01*
X57637Y88687D01*
X57472Y88798D01*
X57277Y88837D01*
X57082Y88798D01*
X56917Y88687D01*
X56806Y88522D01*
X56767Y88327D01*
Y86877D01*
X56806Y86682D01*
X56917Y86517D01*
X57082Y86406D01*
X57098Y86403D01*
Y84074D01*
X57098Y84074D01*
X57121Y83957D01*
X57188Y83858D01*
X57691Y83354D01*
X57643Y83237D01*
X56896D01*
X56440Y83693D01*
Y86625D01*
X56478Y86682D01*
X56517Y86877D01*
Y88327D01*
X56478Y88522D01*
X56367Y88687D01*
X56202Y88798D01*
X56007Y88837D01*
X55812Y88798D01*
X55647Y88687D01*
X55536Y88522D01*
X55497Y88327D01*
Y86877D01*
X55536Y86682D01*
X55647Y86517D01*
X55812Y86406D01*
X55828Y86403D01*
Y83566D01*
X55828Y83566D01*
X55851Y83449D01*
X55918Y83350D01*
X56553Y82715D01*
X56553Y82715D01*
X56652Y82648D01*
X56769Y82625D01*
X59770D01*
X59778Y82498D01*
X59599Y82475D01*
X59396Y82390D01*
X59221Y82257D01*
X59088Y82082D01*
X59003Y81879D01*
X58975Y81661D01*
X59003Y81443D01*
X59030Y81379D01*
X58613Y80962D01*
X57769D01*
Y79312D01*
X59269D01*
Y80608D01*
X59535Y80874D01*
X59599Y80847D01*
X59817Y80819D01*
X60035Y80847D01*
X60238Y80932D01*
X60413Y81065D01*
X60546Y81240D01*
X60610Y81394D01*
X60737Y81368D01*
Y79375D01*
X61291D01*
X61845D01*
Y80148D01*
X62664D01*
X62791Y80148D01*
Y80148D01*
X62791D01*
Y80148D01*
X64664D01*
X64791Y80148D01*
Y80148D01*
X64791D01*
Y80148D01*
X65664D01*
X65791Y80148D01*
Y80148D01*
X65791D01*
Y80148D01*
X66791D01*
Y80148D01*
X66791D01*
Y80148D01*
X67664D01*
X67791Y80148D01*
Y80148D01*
X67791D01*
Y80148D01*
X69664D01*
X69791Y80148D01*
Y80148D01*
X69791D01*
Y80148D01*
X70737D01*
Y80094D01*
X71164D01*
Y81348D01*
X71418D01*
Y80094D01*
X71737D01*
Y79375D01*
X72164D01*
Y81602D01*
X71845D01*
Y82602D01*
X71500D01*
X71494Y82621D01*
X71471Y82729D01*
X71595Y82891D01*
X71680Y83094D01*
X71708Y83312D01*
X71680Y83530D01*
X71595Y83733D01*
X71462Y83908D01*
X71287Y84041D01*
X71084Y84126D01*
X70866Y84154D01*
X70648Y84126D01*
X70445Y84041D01*
X70270Y83908D01*
X70150Y83751D01*
X70078Y83741D01*
X70007Y83751D01*
X69887Y83908D01*
X69712Y84041D01*
X69509Y84126D01*
X69291Y84154D01*
X69073Y84126D01*
X68870Y84041D01*
X68790Y83980D01*
X68661Y84041D01*
X68659Y84085D01*
X68712Y84107D01*
X68887Y84240D01*
X69020Y84415D01*
X69105Y84618D01*
X69133Y84836D01*
X69105Y85054D01*
X69020Y85257D01*
X68913Y85397D01*
X68955Y85526D01*
X69039Y85537D01*
X70103Y84474D01*
X70103Y84474D01*
X70202Y84407D01*
X70319Y84384D01*
X71619D01*
X72708Y83295D01*
Y82209D01*
X73227D01*
Y81280D01*
X73227Y81280D01*
X73250Y81163D01*
X73317Y81064D01*
X73935Y80445D01*
X73886Y80328D01*
X73822D01*
Y79028D01*
X75022D01*
Y79372D01*
X76270D01*
Y77695D01*
X78670D01*
Y83595D01*
X76270D01*
Y79984D01*
X75022D01*
Y80328D01*
X74827D01*
X74728Y80391D01*
X74705Y80508D01*
X74638Y80607D01*
X74638Y80607D01*
X73839Y81407D01*
Y82209D01*
X74358D01*
Y83709D01*
X73160D01*
X73027Y83842D01*
X73076Y83959D01*
X74358D01*
Y85355D01*
X74549Y85546D01*
X76073D01*
X76073Y85546D01*
X76190Y85569D01*
X76289Y85636D01*
X77686Y87033D01*
X77686Y87033D01*
X77753Y87132D01*
X77770Y87220D01*
X78670D01*
Y93120D01*
X77776D01*
Y94473D01*
X78197D01*
Y95773D01*
X76997D01*
Y94473D01*
X77164D01*
Y93120D01*
X76270D01*
Y87220D01*
X76842D01*
X76891Y87103D01*
X75946Y86158D01*
X74422D01*
X74422Y86158D01*
X74305Y86135D01*
X74206Y86068D01*
X74206Y86068D01*
X73596Y85459D01*
X72708D01*
Y85396D01*
X70612D01*
X70512Y85495D01*
X70565Y85622D01*
X72644D01*
X72781Y85649D01*
X72896Y85727D01*
X73658Y86489D01*
X73736Y86604D01*
X73763Y86741D01*
Y87185D01*
X74006D01*
Y88485D01*
X72806D01*
Y87185D01*
X73049D01*
Y86889D01*
X72496Y86336D01*
X71566D01*
X71527Y86463D01*
X71607Y86517D01*
X71718Y86682D01*
X71757Y86877D01*
Y88327D01*
X71718Y88522D01*
X71607Y88687D01*
X71553Y88724D01*
Y93853D01*
X74765Y97066D01*
X74765Y97066D01*
X74832Y97165D01*
X74855Y97282D01*
X74855Y97282D01*
Y103505D01*
X75819Y104469D01*
X77724D01*
X77724Y104469D01*
X77841Y104492D01*
X77886Y104522D01*
X78014Y104469D01*
D02*
G37*
G36*
X78053Y108204D02*
Y107965D01*
X77938Y107917D01*
X77763Y107784D01*
X77630Y107609D01*
X77545Y107406D01*
X77517Y107188D01*
X77529Y107097D01*
X77417Y106970D01*
X76769D01*
Y107064D01*
X74869D01*
Y106970D01*
X74706D01*
X74649Y107092D01*
X74813Y107256D01*
X75819D01*
X75858Y107264D01*
X76769D01*
Y108064D01*
X75858D01*
X75819Y108072D01*
X74644D01*
X74644Y108072D01*
X74488Y108041D01*
X74356Y107952D01*
X74356Y107952D01*
X73739Y107336D01*
X70273D01*
X69397Y108212D01*
Y109385D01*
X68213D01*
X68155Y109512D01*
X68187Y109549D01*
X70202D01*
X70243Y109439D01*
X70243Y109422D01*
Y108712D01*
X71247D01*
X72251D01*
Y109422D01*
X72251Y109439D01*
X72292Y109549D01*
X72952D01*
X72977Y109422D01*
X72831Y109362D01*
X72645Y109219D01*
X72502Y109033D01*
X72413Y108817D01*
X72399Y108712D01*
X74159D01*
X74145Y108817D01*
X74056Y109033D01*
X73913Y109219D01*
X73727Y109362D01*
X73581Y109422D01*
X73606Y109549D01*
X76708D01*
X78053Y108204D01*
D02*
G37*
G36*
X54516Y91781D02*
X54649Y91606D01*
X54824Y91473D01*
X55027Y91388D01*
X55206Y91365D01*
X55198Y91238D01*
X54737D01*
X54620Y91215D01*
X54521Y91148D01*
X54521Y91148D01*
X53975Y90603D01*
X53340D01*
X53223Y90580D01*
X53140Y90524D01*
X53053Y90612D01*
X52103D01*
X51909Y90418D01*
X51792Y90467D01*
Y91143D01*
X51909Y91192D01*
X52103Y90998D01*
X53053D01*
X53528Y91473D01*
Y91896D01*
X54468D01*
X54516Y91781D01*
D02*
G37*
G36*
X68401Y89789D02*
Y88724D01*
X68347Y88687D01*
X68236Y88522D01*
X68197Y88327D01*
Y86877D01*
X68233Y86696D01*
X68224Y86657D01*
X68177Y86569D01*
X67967D01*
X67920Y86657D01*
X67911Y86696D01*
X67947Y86877D01*
Y88327D01*
X67908Y88522D01*
X67797Y88687D01*
X67743Y88724D01*
Y89408D01*
X67743Y89408D01*
X67720Y89525D01*
X67653Y89624D01*
X67653Y89624D01*
X67145Y90132D01*
X67046Y90199D01*
X66929Y90222D01*
X66929Y90222D01*
X66055D01*
X66007Y90337D01*
X65891Y90489D01*
X65919Y90568D01*
X65953Y90609D01*
X66040Y90598D01*
X66258Y90626D01*
X66461Y90711D01*
X66636Y90844D01*
X66769Y91019D01*
X66817Y91134D01*
X67056D01*
X68401Y89789D01*
D02*
G37*
G36*
X79048Y106561D02*
X79069Y106554D01*
Y105762D01*
X79048Y105751D01*
X78942Y105729D01*
X78828Y105879D01*
X78653Y106012D01*
X78450Y106097D01*
X78232Y106125D01*
X78014Y106097D01*
X77811Y106012D01*
X77756Y105970D01*
X76769D01*
Y106064D01*
X74869D01*
Y105264D01*
X76769D01*
Y105358D01*
X77324D01*
X77390Y105283D01*
X77404Y105176D01*
X77320Y105081D01*
X75692D01*
X75575Y105058D01*
X75476Y104991D01*
X74464Y103980D01*
X74347Y104028D01*
Y105918D01*
X74742Y106313D01*
X74869Y106264D01*
Y106264D01*
X76769D01*
Y106358D01*
X77835D01*
X77835Y106358D01*
X77952Y106381D01*
X78018Y106425D01*
X78141Y106374D01*
X78359Y106346D01*
X78577Y106374D01*
X78780Y106459D01*
X78942Y106583D01*
X79048Y106561D01*
D02*
G37*
G36*
X65786Y109869D02*
X66101D01*
X66418Y109553D01*
X66418Y109553D01*
X66517Y109486D01*
X66634Y109463D01*
X66634Y109463D01*
X67402D01*
X67497Y109385D01*
Y108212D01*
X66959Y107674D01*
X66832Y107726D01*
Y108738D01*
X65494D01*
Y109869D01*
X65586D01*
Y111659D01*
X65786D01*
Y109869D01*
D02*
G37*
G36*
X79552Y112833D02*
X79523Y112718D01*
X78746D01*
Y111464D01*
Y110210D01*
X79069D01*
Y107822D01*
X79048Y107815D01*
X78942Y107793D01*
X78780Y107917D01*
X78665Y107965D01*
Y108331D01*
X78642Y108448D01*
X78575Y108547D01*
X77051Y110071D01*
X76952Y110138D01*
X76835Y110161D01*
X76835Y110161D01*
X71395D01*
X71332Y110288D01*
X71416Y110398D01*
X71501Y110601D01*
X71529Y110819D01*
X71501Y111037D01*
X71416Y111240D01*
X71283Y111415D01*
X71108Y111548D01*
X70905Y111633D01*
X70687Y111661D01*
X70469Y111633D01*
X70266Y111548D01*
X70091Y111415D01*
X69958Y111240D01*
X69910Y111125D01*
X67986D01*
Y111769D01*
X67792D01*
Y111965D01*
X67769Y112082D01*
X67702Y112181D01*
X67603Y112248D01*
X67486Y112271D01*
X61419D01*
X61302Y112248D01*
X61203Y112181D01*
X61203Y112181D01*
X58142Y109121D01*
X57506D01*
Y109215D01*
X55606D01*
Y108415D01*
X57506D01*
Y108509D01*
X58269D01*
X58269Y108509D01*
X58386Y108532D01*
X58485Y108599D01*
X61546Y111659D01*
X63332D01*
Y110946D01*
X63886D01*
X64440D01*
Y111659D01*
X64586D01*
Y109869D01*
X64678D01*
Y108738D01*
X64232D01*
Y107596D01*
X63627D01*
X63627Y107596D01*
X63471Y107565D01*
X63339Y107476D01*
X63339Y107476D01*
X61807Y105945D01*
X60494D01*
X59335Y107103D01*
X59203Y107192D01*
X59047Y107223D01*
X59047Y107223D01*
X56556D01*
X56517Y107215D01*
X55606D01*
Y106415D01*
X56517D01*
X56556Y106407D01*
X58878D01*
X60037Y105249D01*
X60037Y105249D01*
X60169Y105160D01*
X60325Y105129D01*
X60325Y105129D01*
X61976D01*
X61976Y105129D01*
X62132Y105160D01*
X62264Y105249D01*
X63796Y106780D01*
X64232D01*
Y105742D01*
X64159D01*
Y104815D01*
X64686D01*
Y105638D01*
X64932D01*
Y103688D01*
X66132D01*
Y105638D01*
X66432D01*
Y103688D01*
X66441D01*
X66490Y103571D01*
X65638Y102719D01*
X58166D01*
X58029Y102692D01*
X57914Y102614D01*
X56748Y101449D01*
X55499D01*
X55362Y101422D01*
X55247Y101344D01*
X54231Y100328D01*
X54208Y100295D01*
X53833D01*
Y99095D01*
X53999D01*
Y98425D01*
X54026Y98288D01*
X54104Y98173D01*
X54297Y97979D01*
X54377Y97887D01*
X54266Y97722D01*
X54227Y97527D01*
Y96388D01*
X53023Y95184D01*
X52103D01*
X51909Y94990D01*
X51792Y95039D01*
Y96269D01*
X51909Y96318D01*
X52076Y96151D01*
X52451D01*
Y97155D01*
Y98159D01*
X52076D01*
X51909Y97992D01*
X51792Y98041D01*
Y115594D01*
X61084D01*
X61182Y115523D01*
X61182Y115467D01*
Y114646D01*
X62186D01*
X63190D01*
Y115467D01*
X63190Y115523D01*
X63288Y115594D01*
X68084D01*
X68182Y115523D01*
X68182Y115467D01*
Y114646D01*
X69186D01*
X70190D01*
Y115467D01*
X70190Y115523D01*
X70288Y115594D01*
X79552D01*
Y112833D01*
D02*
G37*
G36*
X69816Y106640D02*
X69816Y106640D01*
X69948Y106551D01*
X70104Y106520D01*
X73904D01*
X73912Y106511D01*
X73966Y106402D01*
X73825Y106261D01*
X73758Y106162D01*
X73735Y106045D01*
X73735Y106045D01*
Y100711D01*
X71031Y98006D01*
X71004Y97966D01*
X70887Y97887D01*
X70776Y97722D01*
X70737Y97527D01*
Y96077D01*
X70776Y95882D01*
X70887Y95717D01*
X71052Y95606D01*
X71247Y95567D01*
X71442Y95606D01*
X71607Y95717D01*
X71718Y95882D01*
X71757Y96077D01*
Y97527D01*
X71718Y97722D01*
X71675Y97786D01*
X72480Y98590D01*
X72588Y98519D01*
X72540Y98403D01*
X72526Y98298D01*
X73406D01*
Y98171D01*
X73533D01*
Y97291D01*
X73638Y97305D01*
X73854Y97394D01*
X74040Y97537D01*
X74116Y97636D01*
X74243Y97593D01*
Y97409D01*
X71031Y94196D01*
X70964Y94097D01*
X70941Y93980D01*
X70941Y93980D01*
Y88724D01*
X70887Y88687D01*
X70776Y88522D01*
X70737Y88327D01*
Y86877D01*
X70776Y86682D01*
X70887Y86517D01*
X70967Y86463D01*
X70928Y86336D01*
X70633D01*
X70383Y86585D01*
X70448Y86682D01*
X70487Y86877D01*
Y88327D01*
X70448Y88522D01*
X70337Y88687D01*
X70334Y88690D01*
Y91313D01*
X70307Y91450D01*
X70229Y91565D01*
X68852Y92943D01*
X68924Y93050D01*
X69073Y92988D01*
X69291Y92960D01*
X69509Y92988D01*
X69712Y93073D01*
X69887Y93206D01*
X70020Y93381D01*
X70105Y93584D01*
X70133Y93802D01*
X70105Y94020D01*
X70020Y94223D01*
X69887Y94398D01*
X69712Y94531D01*
X69509Y94616D01*
X69291Y94644D01*
X69073Y94616D01*
X68870Y94531D01*
X68695Y94398D01*
X68564Y94227D01*
X68561Y94223D01*
X68414Y94198D01*
X67743Y94869D01*
Y95680D01*
X67797Y95717D01*
X67908Y95882D01*
X67947Y96077D01*
Y97527D01*
X67908Y97722D01*
X67797Y97887D01*
X67632Y97998D01*
X67437Y98037D01*
X67242Y97998D01*
X67077Y97887D01*
X66966Y97722D01*
X66927Y97527D01*
Y96077D01*
X66966Y95882D01*
X67077Y95717D01*
X67131Y95680D01*
Y94742D01*
X67131Y94742D01*
X67154Y94625D01*
X67177Y94591D01*
X67109Y94464D01*
X62738D01*
X62601Y94437D01*
X62486Y94359D01*
X60835Y92708D01*
X60757Y92593D01*
X60730Y92456D01*
Y91053D01*
X60666Y91026D01*
X60561Y90946D01*
X58914Y92594D01*
X58988Y92695D01*
X59204Y92606D01*
X59309Y92592D01*
Y93345D01*
X58556D01*
X58570Y93240D01*
X58659Y93024D01*
X58558Y92950D01*
X56105Y95402D01*
X56147Y95540D01*
X56223Y95555D01*
X56406Y95678D01*
X56529Y95861D01*
X56572Y96077D01*
Y96675D01*
X56007D01*
X55442D01*
Y96286D01*
X55320Y96232D01*
X55247Y96290D01*
Y97527D01*
X55208Y97722D01*
X55097Y97887D01*
X55094Y97890D01*
Y98044D01*
X55067Y98181D01*
X54989Y98296D01*
X54713Y98573D01*
Y99095D01*
X55133D01*
Y100221D01*
X55647Y100735D01*
X56896D01*
X57033Y100762D01*
X57148Y100840D01*
X58314Y102005D01*
X61072D01*
Y101652D01*
X60579D01*
X60579Y101652D01*
X60462Y101629D01*
X60363Y101562D01*
X59446Y100645D01*
X59379Y100546D01*
X59374Y100520D01*
X58912D01*
Y98870D01*
X60412D01*
Y100520D01*
X60352D01*
X60303Y100637D01*
X60706Y101040D01*
X61072D01*
Y100646D01*
X62372D01*
Y102005D01*
X65786D01*
X65923Y102032D01*
X66038Y102110D01*
X67284Y103356D01*
X67362Y103471D01*
X67389Y103608D01*
Y103688D01*
X67527D01*
X67582Y103634D01*
X67697Y103556D01*
X67834Y103529D01*
X68419D01*
Y103086D01*
X70319D01*
Y104686D01*
X68419D01*
Y104243D01*
X67982D01*
X67632Y104593D01*
Y105688D01*
X66832D01*
Y106780D01*
X67050D01*
X67050Y106780D01*
X67206Y106811D01*
X67338Y106900D01*
X68224Y107785D01*
X68670D01*
X69816Y106640D01*
D02*
G37*
%LPC*%
G36*
X65269Y92837D02*
X64516D01*
Y92084D01*
X64621Y92098D01*
X64837Y92187D01*
X65023Y92330D01*
X65166Y92516D01*
X65255Y92732D01*
X65269Y92837D01*
D02*
G37*
G36*
X63754Y88867D02*
Y87729D01*
X64192D01*
Y88327D01*
X64149Y88543D01*
X64026Y88726D01*
X63843Y88849D01*
X63754Y88867D01*
D02*
G37*
G36*
X63500D02*
X63411Y88849D01*
X63228Y88726D01*
X63105Y88543D01*
X63062Y88327D01*
Y87729D01*
X63500D01*
Y88867D01*
D02*
G37*
G36*
X64262Y92837D02*
X63509D01*
X63523Y92732D01*
X63612Y92516D01*
X63755Y92330D01*
X63941Y92187D01*
X64157Y92098D01*
X64262Y92084D01*
Y92837D01*
D02*
G37*
G36*
X74295Y95241D02*
Y94488D01*
X75048D01*
X75034Y94593D01*
X74945Y94809D01*
X74802Y94995D01*
X74616Y95138D01*
X74400Y95227D01*
X74295Y95241D01*
D02*
G37*
G36*
X74041D02*
X73936Y95227D01*
X73720Y95138D01*
X73534Y94995D01*
X73391Y94809D01*
X73302Y94593D01*
X73288Y94488D01*
X74041D01*
Y95241D01*
D02*
G37*
G36*
X77470Y96696D02*
X76943D01*
Y96119D01*
X77470D01*
Y96696D01*
D02*
G37*
G36*
X78251D02*
X77724D01*
Y96119D01*
X78251D01*
Y96696D01*
D02*
G37*
G36*
X77470Y97527D02*
X76943D01*
Y96950D01*
X77470D01*
Y97527D01*
D02*
G37*
G36*
X78251D02*
X77724D01*
Y96950D01*
X78251D01*
Y97527D01*
D02*
G37*
G36*
X54991Y94987D02*
X54886Y94973D01*
X54670Y94884D01*
X54484Y94741D01*
X54341Y94555D01*
X54252Y94339D01*
X54238Y94234D01*
X54991D01*
Y94987D01*
D02*
G37*
G36*
X54229Y78985D02*
X54124Y78971D01*
X53908Y78882D01*
X53722Y78739D01*
X53579Y78553D01*
X53490Y78337D01*
X53476Y78232D01*
X54229D01*
Y78985D01*
D02*
G37*
G36*
X59300Y78759D02*
X58723D01*
Y78232D01*
X59300D01*
Y78759D01*
D02*
G37*
G36*
X58469D02*
X57892D01*
Y78232D01*
X58469D01*
Y78759D01*
D02*
G37*
G36*
X54483Y78985D02*
Y78232D01*
X55236D01*
X55222Y78337D01*
X55133Y78553D01*
X54990Y78739D01*
X54804Y78882D01*
X54588Y78971D01*
X54483Y78985D01*
D02*
G37*
G36*
X72845Y81602D02*
X72418D01*
Y79375D01*
X72845D01*
Y81602D01*
D02*
G37*
G36*
X64770Y79620D02*
Y78867D01*
X65523D01*
X65509Y78972D01*
X65420Y79188D01*
X65277Y79374D01*
X65091Y79517D01*
X64875Y79606D01*
X64770Y79620D01*
D02*
G37*
G36*
X64516D02*
X64411Y79606D01*
X64195Y79517D01*
X64009Y79374D01*
X63866Y79188D01*
X63777Y78972D01*
X63763Y78867D01*
X64516D01*
Y79620D01*
D02*
G37*
G36*
X75076Y78682D02*
X74549D01*
Y78105D01*
X75076D01*
Y78682D01*
D02*
G37*
G36*
X58469Y77978D02*
X57892D01*
Y77451D01*
X58469D01*
Y77978D01*
D02*
G37*
G36*
X75076Y77851D02*
X74549D01*
Y77274D01*
X75076D01*
Y77851D01*
D02*
G37*
G36*
X74295D02*
X73768D01*
Y77274D01*
X74295D01*
Y77851D01*
D02*
G37*
G36*
X59300Y77978D02*
X58723D01*
Y77451D01*
X59300D01*
Y77978D01*
D02*
G37*
G36*
X74295Y78682D02*
X73768D01*
Y78105D01*
X74295D01*
Y78682D01*
D02*
G37*
G36*
X65523Y78613D02*
X64770D01*
Y77860D01*
X64875Y77874D01*
X65091Y77963D01*
X65277Y78106D01*
X65420Y78292D01*
X65509Y78508D01*
X65523Y78613D01*
D02*
G37*
G36*
X64516D02*
X63763D01*
X63777Y78508D01*
X63866Y78292D01*
X64009Y78106D01*
X64195Y77963D01*
X64411Y77874D01*
X64516Y77860D01*
Y78613D01*
D02*
G37*
G36*
X57519Y80962D02*
X56019D01*
Y80189D01*
X55437D01*
Y80583D01*
X54037D01*
Y79183D01*
X55437D01*
Y79577D01*
X56019D01*
Y79312D01*
X56463D01*
Y78705D01*
X56246D01*
Y77505D01*
X57546D01*
Y78705D01*
X57075D01*
Y79312D01*
X57519D01*
Y80962D01*
D02*
G37*
G36*
X55998Y93980D02*
X55245D01*
Y93227D01*
X55350Y93241D01*
X55566Y93330D01*
X55752Y93473D01*
X55895Y93659D01*
X55984Y93875D01*
X55998Y93980D01*
D02*
G37*
G36*
X54991D02*
X54238D01*
X54252Y93875D01*
X54341Y93659D01*
X54484Y93473D01*
X54670Y93330D01*
X54886Y93241D01*
X54991Y93227D01*
Y93980D01*
D02*
G37*
G36*
X74041Y94234D02*
X73288D01*
X73302Y94129D01*
X73391Y93913D01*
X73534Y93727D01*
X73720Y93584D01*
X73936Y93495D01*
X74041Y93481D01*
Y94234D01*
D02*
G37*
G36*
X75048D02*
X74295D01*
Y93481D01*
X74400Y93495D01*
X74616Y93584D01*
X74802Y93727D01*
X74945Y93913D01*
X75034Y94129D01*
X75048Y94234D01*
D02*
G37*
G36*
X73279Y89408D02*
X72752D01*
Y88831D01*
X73279D01*
Y89408D01*
D02*
G37*
G36*
X74060D02*
X73533D01*
Y88831D01*
X74060D01*
Y89408D01*
D02*
G37*
G36*
Y90239D02*
X73533D01*
Y89662D01*
X74060D01*
Y90239D01*
D02*
G37*
G36*
X73279D02*
X72752D01*
Y89662D01*
X73279D01*
Y90239D01*
D02*
G37*
G36*
X78492Y102737D02*
X77715D01*
Y101610D01*
X78492D01*
Y102737D01*
D02*
G37*
G36*
X75692Y108537D02*
X74815D01*
Y108210D01*
X75692D01*
Y108537D01*
D02*
G37*
G36*
X76823Y109118D02*
X75946D01*
Y108791D01*
X76823D01*
Y109118D01*
D02*
G37*
G36*
X75692D02*
X74815D01*
Y108791D01*
X75692D01*
Y109118D01*
D02*
G37*
G36*
X76823Y108537D02*
X75946D01*
Y108210D01*
X76823D01*
Y108537D01*
D02*
G37*
G36*
X73152Y108458D02*
X72399D01*
X72413Y108353D01*
X72502Y108137D01*
X72645Y107951D01*
X72831Y107808D01*
X73047Y107719D01*
X73152Y107705D01*
Y108458D01*
D02*
G37*
G36*
X72251D02*
X71374D01*
Y107731D01*
X72251D01*
Y108458D01*
D02*
G37*
G36*
X71120D02*
X70243D01*
Y107731D01*
X71120D01*
Y108458D01*
D02*
G37*
G36*
X74159D02*
X73406D01*
Y107705D01*
X73511Y107719D01*
X73727Y107808D01*
X73913Y107951D01*
X74056Y108137D01*
X74145Y108353D01*
X74159Y108458D01*
D02*
G37*
G36*
X53080Y98159D02*
X52705D01*
Y97155D01*
Y96151D01*
X53080D01*
X53582Y96653D01*
Y96849D01*
X53721D01*
X53838Y96872D01*
X53937Y96939D01*
X54004Y97038D01*
X54027Y97155D01*
X54004Y97272D01*
X53937Y97371D01*
X53838Y97438D01*
X53721Y97461D01*
X53582D01*
Y97657D01*
X53080Y98159D01*
D02*
G37*
G36*
X58166Y110998D02*
X57413D01*
X57427Y110893D01*
X57516Y110677D01*
X57659Y110491D01*
X57845Y110348D01*
X58061Y110259D01*
X58166Y110245D01*
Y110998D01*
D02*
G37*
G36*
X78492Y111337D02*
X77715D01*
Y110210D01*
X78492D01*
Y111337D01*
D02*
G37*
G36*
X64440Y110692D02*
X64013D01*
Y109815D01*
X64440D01*
Y110692D01*
D02*
G37*
G36*
X59173Y110998D02*
X58420D01*
Y110245D01*
X58525Y110259D01*
X58741Y110348D01*
X58927Y110491D01*
X59070Y110677D01*
X59159Y110893D01*
X59173Y110998D01*
D02*
G37*
G36*
X58166Y112005D02*
X58061Y111991D01*
X57845Y111902D01*
X57659Y111759D01*
X57516Y111573D01*
X57427Y111357D01*
X57413Y111252D01*
X58166D01*
Y112005D01*
D02*
G37*
G36*
X54660Y111488D02*
X53883D01*
Y110361D01*
X54660D01*
Y111488D01*
D02*
G37*
G36*
X53629D02*
X52852D01*
Y110361D01*
X53629D01*
Y111488D01*
D02*
G37*
G36*
X63759Y110692D02*
X63332D01*
Y109815D01*
X63759D01*
Y110692D01*
D02*
G37*
G36*
X57506Y108215D02*
X55606D01*
Y108121D01*
X55253D01*
X55253Y108121D01*
X55136Y108098D01*
X55037Y108031D01*
X54816Y107811D01*
X54701Y107859D01*
X54483Y107887D01*
X54265Y107859D01*
X54062Y107774D01*
X53887Y107641D01*
X53754Y107466D01*
X53669Y107263D01*
X53641Y107045D01*
X53669Y106827D01*
X53754Y106624D01*
X53887Y106449D01*
X54062Y106316D01*
X54265Y106231D01*
X54483Y106203D01*
X54701Y106231D01*
X54904Y106316D01*
X55079Y106449D01*
X55212Y106624D01*
X55297Y106827D01*
X55325Y107045D01*
X55297Y107263D01*
X55249Y107378D01*
X55380Y107509D01*
X55606D01*
Y107415D01*
X57506D01*
Y108215D01*
D02*
G37*
G36*
X61341Y108576D02*
Y107823D01*
X62094D01*
X62080Y107928D01*
X61991Y108144D01*
X61848Y108330D01*
X61662Y108473D01*
X61446Y108562D01*
X61341Y108576D01*
D02*
G37*
G36*
X61087D02*
X60982Y108562D01*
X60766Y108473D01*
X60580Y108330D01*
X60437Y108144D01*
X60348Y107928D01*
X60334Y107823D01*
X61087D01*
Y108576D01*
D02*
G37*
G36*
X58420Y112005D02*
Y111252D01*
X59173D01*
X59159Y111357D01*
X59070Y111573D01*
X58927Y111759D01*
X58741Y111902D01*
X58525Y111991D01*
X58420Y112005D01*
D02*
G37*
G36*
X70190Y114392D02*
X69313D01*
Y113515D01*
X70190D01*
Y114392D01*
D02*
G37*
G36*
X69059D02*
X68182D01*
Y113515D01*
X69059D01*
Y114392D01*
D02*
G37*
G36*
X63190Y114392D02*
X62313D01*
Y113515D01*
X63190D01*
Y114392D01*
D02*
G37*
G36*
X59817Y114926D02*
X59712Y114912D01*
X59496Y114823D01*
X59310Y114680D01*
X59167Y114494D01*
X59078Y114278D01*
X59064Y114173D01*
X59817D01*
Y114926D01*
D02*
G37*
G36*
X72771Y115180D02*
Y114427D01*
X73524D01*
X73510Y114532D01*
X73421Y114748D01*
X73278Y114934D01*
X73092Y115077D01*
X72876Y115166D01*
X72771Y115180D01*
D02*
G37*
G36*
X72517D02*
X72412Y115166D01*
X72196Y115077D01*
X72010Y114934D01*
X71867Y114748D01*
X71778Y114532D01*
X71764Y114427D01*
X72517D01*
Y115180D01*
D02*
G37*
G36*
X60071Y114926D02*
Y114173D01*
X60824D01*
X60810Y114278D01*
X60721Y114494D01*
X60578Y114680D01*
X60392Y114823D01*
X60176Y114912D01*
X60071Y114926D01*
D02*
G37*
G36*
X62059Y114392D02*
X61182D01*
Y113515D01*
X62059D01*
Y114392D01*
D02*
G37*
G36*
X54660Y112869D02*
X53883D01*
Y111742D01*
X54660D01*
Y112869D01*
D02*
G37*
G36*
X53629D02*
X52852D01*
Y111742D01*
X53629D01*
Y112869D01*
D02*
G37*
G36*
X78492Y112718D02*
X77715D01*
Y111591D01*
X78492D01*
Y112718D01*
D02*
G37*
G36*
X59817Y113919D02*
X59064D01*
X59078Y113814D01*
X59167Y113598D01*
X59310Y113412D01*
X59496Y113269D01*
X59712Y113180D01*
X59817Y113166D01*
Y113919D01*
D02*
G37*
G36*
X73524Y114173D02*
X72771D01*
Y113420D01*
X72876Y113434D01*
X73092Y113523D01*
X73278Y113666D01*
X73421Y113852D01*
X73510Y114068D01*
X73524Y114173D01*
D02*
G37*
G36*
X72517D02*
X71764D01*
X71778Y114068D01*
X71867Y113852D01*
X72010Y113666D01*
X72196Y113523D01*
X72412Y113434D01*
X72517Y113420D01*
Y114173D01*
D02*
G37*
G36*
X60824Y113919D02*
X60071D01*
Y113166D01*
X60176Y113180D01*
X60392Y113269D01*
X60578Y113412D01*
X60721Y113598D01*
X60810Y113814D01*
X60824Y113919D01*
D02*
G37*
G36*
X53629Y102888D02*
X52852D01*
Y101761D01*
X53629D01*
Y102888D01*
D02*
G37*
G36*
X54660D02*
X53883D01*
Y101761D01*
X54660D01*
Y102888D01*
D02*
G37*
G36*
X53629Y104269D02*
X52852D01*
Y103142D01*
X53629D01*
Y104269D01*
D02*
G37*
G36*
X54660D02*
X53883D01*
Y103142D01*
X54660D01*
Y104269D01*
D02*
G37*
G36*
X62094Y107569D02*
X61341D01*
Y106816D01*
X61446Y106830D01*
X61662Y106919D01*
X61848Y107062D01*
X61991Y107248D01*
X62080Y107464D01*
X62094Y107569D01*
D02*
G37*
G36*
X61087D02*
X60334D01*
X60348Y107464D01*
X60437Y107248D01*
X60580Y107062D01*
X60766Y106919D01*
X60982Y106830D01*
X61087Y106816D01*
Y107569D01*
D02*
G37*
G36*
X57560Y106269D02*
X56683D01*
Y105942D01*
X57560D01*
Y106269D01*
D02*
G37*
G36*
X56429D02*
X55552D01*
Y105942D01*
X56429D01*
Y106269D01*
D02*
G37*
G36*
X64686Y104561D02*
X64159D01*
Y103634D01*
X64686D01*
Y104561D01*
D02*
G37*
G36*
X63905D02*
X63378D01*
Y103634D01*
X63905D01*
Y104561D01*
D02*
G37*
G36*
X57560Y105688D02*
X56683D01*
Y105361D01*
X57560D01*
Y105688D01*
D02*
G37*
G36*
X56429D02*
X55552D01*
Y105361D01*
X56429D01*
Y105688D01*
D02*
G37*
G36*
X63905Y105742D02*
X63378D01*
Y104815D01*
X63905D01*
Y105742D01*
D02*
G37*
G36*
X69977Y100918D02*
X69759Y100890D01*
X69556Y100805D01*
X69381Y100672D01*
X69248Y100497D01*
X69163Y100294D01*
X69135Y100076D01*
X69163Y99858D01*
X69248Y99655D01*
X69381Y99480D01*
X69556Y99347D01*
X69671Y99299D01*
Y97924D01*
X69617Y97887D01*
X69506Y97722D01*
X69467Y97527D01*
Y96077D01*
X69506Y95882D01*
X69617Y95717D01*
X69782Y95606D01*
X69977Y95567D01*
X70172Y95606D01*
X70337Y95717D01*
X70448Y95882D01*
X70487Y96077D01*
Y97527D01*
X70448Y97722D01*
X70337Y97887D01*
X70283Y97924D01*
Y99299D01*
X70398Y99347D01*
X70573Y99480D01*
X70706Y99655D01*
X70791Y99858D01*
X70819Y100076D01*
X70791Y100294D01*
X70706Y100497D01*
X70573Y100672D01*
X70398Y100805D01*
X70195Y100890D01*
X69977Y100918D01*
D02*
G37*
G36*
X62357Y98037D02*
X62162Y97998D01*
X61997Y97887D01*
X61886Y97722D01*
X61847Y97527D01*
Y96077D01*
X61886Y95882D01*
X61997Y95717D01*
X62162Y95606D01*
X62357Y95567D01*
X62552Y95606D01*
X62717Y95717D01*
X62828Y95882D01*
X62867Y96077D01*
Y97527D01*
X62828Y97722D01*
X62717Y97887D01*
X62552Y97998D01*
X62357Y98037D01*
D02*
G37*
G36*
X61087D02*
X60892Y97998D01*
X60727Y97887D01*
X60616Y97722D01*
X60577Y97527D01*
Y96077D01*
X60616Y95882D01*
X60727Y95717D01*
X60892Y95606D01*
X61087Y95567D01*
X61282Y95606D01*
X61447Y95717D01*
X61558Y95882D01*
X61597Y96077D01*
Y97527D01*
X61558Y97722D01*
X61447Y97887D01*
X61282Y97998D01*
X61087Y98037D01*
D02*
G37*
G36*
X66040Y96675D02*
X65602D01*
Y96077D01*
X65645Y95861D01*
X65768Y95678D01*
X65951Y95555D01*
X66040Y95537D01*
Y96675D01*
D02*
G37*
G36*
X59817Y98037D02*
X59622Y97998D01*
X59457Y97887D01*
X59346Y97722D01*
X59307Y97527D01*
Y96077D01*
X59346Y95882D01*
X59457Y95717D01*
X59622Y95606D01*
X59817Y95567D01*
X60012Y95606D01*
X60177Y95717D01*
X60288Y95882D01*
X60327Y96077D01*
Y97527D01*
X60288Y97722D01*
X60177Y97887D01*
X60012Y97998D01*
X59817Y98037D01*
D02*
G37*
G36*
X58547D02*
X58352Y97998D01*
X58187Y97887D01*
X58076Y97722D01*
X58037Y97527D01*
Y96077D01*
X58076Y95882D01*
X58187Y95717D01*
X58352Y95606D01*
X58547Y95567D01*
X58742Y95606D01*
X58907Y95717D01*
X59018Y95882D01*
X59057Y96077D01*
Y97527D01*
X59018Y97722D01*
X58907Y97887D01*
X58742Y97998D01*
X58547Y98037D01*
D02*
G37*
G36*
X66732Y96675D02*
X66294D01*
Y95537D01*
X66383Y95555D01*
X66566Y95678D01*
X66689Y95861D01*
X66732Y96077D01*
Y96675D01*
D02*
G37*
G36*
X62426Y99369D02*
X61849D01*
Y98742D01*
X62426D01*
Y99369D01*
D02*
G37*
G36*
X66675Y99568D02*
X65798D01*
Y98841D01*
X66675D01*
Y99568D01*
D02*
G37*
G36*
X64952Y100495D02*
X63052D01*
Y98895D01*
X63696D01*
Y98431D01*
X63696Y98431D01*
X63719Y98314D01*
X63786Y98215D01*
X63905Y98095D01*
X63824Y97996D01*
X63822Y97998D01*
X63627Y98037D01*
X63432Y97998D01*
X63267Y97887D01*
X63156Y97722D01*
X63117Y97527D01*
Y96077D01*
X63156Y95882D01*
X63267Y95717D01*
X63432Y95606D01*
X63627Y95567D01*
X63822Y95606D01*
X63987Y95717D01*
X64098Y95882D01*
X64137Y96077D01*
Y97527D01*
X64098Y97722D01*
X64096Y97724D01*
X64195Y97805D01*
X64402Y97599D01*
X64387Y97527D01*
Y96077D01*
X64426Y95882D01*
X64537Y95717D01*
X64702Y95606D01*
X64897Y95567D01*
X65092Y95606D01*
X65257Y95717D01*
X65368Y95882D01*
X65407Y96077D01*
Y97527D01*
X65368Y97722D01*
X65257Y97887D01*
X65092Y97998D01*
X64897Y98037D01*
X64840Y98025D01*
X64308Y98558D01*
Y98895D01*
X64952D01*
Y100495D01*
D02*
G37*
G36*
X61595Y99369D02*
X61018D01*
Y98742D01*
X61595D01*
Y99369D01*
D02*
G37*
G36*
X68580Y99775D02*
X68362Y99747D01*
X68159Y99662D01*
X67984Y99529D01*
X67933Y99461D01*
X67806Y99505D01*
Y99568D01*
X66929D01*
Y98841D01*
X67750D01*
X67766Y98715D01*
X67851Y98512D01*
X67984Y98337D01*
X68159Y98204D01*
X68274Y98156D01*
Y97779D01*
X68236Y97722D01*
X68197Y97527D01*
Y96077D01*
X68236Y95882D01*
X68347Y95717D01*
X68512Y95606D01*
X68707Y95567D01*
X68902Y95606D01*
X69067Y95717D01*
X69178Y95882D01*
X69217Y96077D01*
Y97527D01*
X69178Y97722D01*
X69067Y97887D01*
X68902Y97998D01*
X68886Y98001D01*
Y98156D01*
X69001Y98204D01*
X69176Y98337D01*
X69309Y98512D01*
X69394Y98715D01*
X69422Y98933D01*
X69394Y99151D01*
X69309Y99354D01*
X69176Y99529D01*
X69001Y99662D01*
X68798Y99747D01*
X68580Y99775D01*
D02*
G37*
G36*
X61595Y100250D02*
X61018D01*
Y99623D01*
X61595D01*
Y100250D01*
D02*
G37*
G36*
X56056Y99568D02*
X55479D01*
Y99041D01*
X56056D01*
Y99568D01*
D02*
G37*
G36*
X58662Y100520D02*
X57162D01*
Y99378D01*
X57061Y99276D01*
X57014Y99206D01*
X56887Y99239D01*
Y99568D01*
X56310D01*
Y99041D01*
X56844D01*
X56887Y99041D01*
X56971Y98949D01*
Y97924D01*
X56917Y97887D01*
X56806Y97722D01*
X56767Y97527D01*
Y96077D01*
X56806Y95882D01*
X56917Y95717D01*
X57082Y95606D01*
X57277Y95567D01*
X57472Y95606D01*
X57637Y95717D01*
X57748Y95882D01*
X57787Y96077D01*
Y97527D01*
X57748Y97722D01*
X57637Y97887D01*
X57583Y97924D01*
Y98870D01*
X58662D01*
Y100520D01*
D02*
G37*
G36*
X73279Y98044D02*
X72526D01*
X72540Y97939D01*
X72629Y97723D01*
X72772Y97537D01*
X72958Y97394D01*
X73174Y97305D01*
X73279Y97291D01*
Y98044D01*
D02*
G37*
G36*
X55880Y98067D02*
X55791Y98049D01*
X55608Y97926D01*
X55485Y97743D01*
X55442Y97527D01*
Y96929D01*
X55880D01*
Y98067D01*
D02*
G37*
G36*
X66040D02*
X65951Y98049D01*
X65768Y97926D01*
X65645Y97743D01*
X65602Y97527D01*
Y96929D01*
X66040D01*
Y98067D01*
D02*
G37*
G36*
X56134D02*
Y96929D01*
X56572D01*
Y97527D01*
X56529Y97743D01*
X56406Y97926D01*
X56223Y98049D01*
X56134Y98067D01*
D02*
G37*
G36*
X66294D02*
Y96929D01*
X66732D01*
Y97527D01*
X66689Y97743D01*
X66566Y97926D01*
X66383Y98049D01*
X66294Y98067D01*
D02*
G37*
G36*
X60316Y93345D02*
X59563D01*
Y92592D01*
X59668Y92606D01*
X59884Y92695D01*
X60070Y92838D01*
X60213Y93024D01*
X60302Y93240D01*
X60316Y93345D01*
D02*
G37*
G36*
X59563Y94352D02*
Y93599D01*
X60316D01*
X60302Y93704D01*
X60213Y93920D01*
X60070Y94106D01*
X59884Y94249D01*
X59668Y94338D01*
X59563Y94352D01*
D02*
G37*
G36*
X59309D02*
X59204Y94338D01*
X58988Y94249D01*
X58802Y94106D01*
X58659Y93920D01*
X58570Y93704D01*
X58556Y93599D01*
X59309D01*
Y94352D01*
D02*
G37*
G36*
X72263Y102226D02*
Y101473D01*
X73016D01*
X73002Y101578D01*
X72913Y101794D01*
X72770Y101980D01*
X72584Y102123D01*
X72368Y102212D01*
X72263Y102226D01*
D02*
G37*
G36*
X73173Y103759D02*
X72296D01*
Y103032D01*
X73173D01*
Y103759D01*
D02*
G37*
G36*
X72042D02*
X71165D01*
Y103032D01*
X72042D01*
Y103759D01*
D02*
G37*
G36*
X72009Y102226D02*
X71904Y102212D01*
X71688Y102123D01*
X71502Y101980D01*
X71359Y101794D01*
X71270Y101578D01*
X71256Y101473D01*
X72009D01*
Y102226D01*
D02*
G37*
G36*
X56887Y100349D02*
X56310D01*
Y99822D01*
X56887D01*
Y100349D01*
D02*
G37*
G36*
X56056D02*
X55479D01*
Y99822D01*
X56056D01*
Y100349D01*
D02*
G37*
G36*
X62426Y100250D02*
X61849D01*
Y99623D01*
X62426D01*
Y100250D01*
D02*
G37*
G36*
X66675Y100549D02*
X65798D01*
Y99822D01*
X66675D01*
Y100549D01*
D02*
G37*
G36*
X73016Y101219D02*
X72263D01*
Y100466D01*
X72368Y100480D01*
X72584Y100569D01*
X72770Y100712D01*
X72913Y100898D01*
X73002Y101114D01*
X73016Y101219D01*
D02*
G37*
G36*
X72009D02*
X71256D01*
X71270Y101114D01*
X71359Y100898D01*
X71502Y100712D01*
X71688Y100569D01*
X71904Y100480D01*
X72009Y100466D01*
Y101219D01*
D02*
G37*
G36*
X67806Y100549D02*
X66929D01*
Y99822D01*
X67806D01*
Y100549D01*
D02*
G37*
G36*
X72042Y104740D02*
X71165D01*
Y104013D01*
X72042D01*
Y104740D01*
D02*
G37*
G36*
X73173D02*
X72296D01*
Y104013D01*
X73173D01*
Y104740D01*
D02*
G37*
%LPD*%
D10*
X54737Y87602D02*
D03*
X56007D02*
D03*
X57277D02*
D03*
X58547D02*
D03*
X59817D02*
D03*
X61087D02*
D03*
X62357D02*
D03*
X63627D02*
D03*
X64897D02*
D03*
X66167D02*
D03*
X67437D02*
D03*
X68707D02*
D03*
X69977D02*
D03*
X71247D02*
D03*
X54737Y96802D02*
D03*
X56007D02*
D03*
X57277D02*
D03*
X58547D02*
D03*
X59817D02*
D03*
X61087D02*
D03*
X62357D02*
D03*
X63627D02*
D03*
X64897D02*
D03*
X66167D02*
D03*
X67437D02*
D03*
X68707D02*
D03*
X69977D02*
D03*
X71247D02*
D03*
D11*
X69369Y103886D02*
D03*
X72169D02*
D03*
X64002Y99695D02*
D03*
X66802D02*
D03*
X68447Y108585D02*
D03*
X71247D02*
D03*
D12*
X77597Y95123D02*
D03*
Y96823D02*
D03*
X74422Y79678D02*
D03*
Y77978D02*
D03*
X73406Y89535D02*
D03*
Y87835D02*
D03*
D13*
X61722Y99496D02*
D03*
Y101346D02*
D03*
D14*
X59662Y99695D02*
D03*
X57912D02*
D03*
X56769Y80137D02*
D03*
X58519D02*
D03*
D15*
X78619Y102864D02*
D03*
Y111464D02*
D03*
X53756Y111615D02*
D03*
Y103015D02*
D03*
D16*
X75819Y108664D02*
D03*
Y107664D02*
D03*
Y106664D02*
D03*
Y105664D02*
D03*
X56556Y105815D02*
D03*
Y106815D02*
D03*
Y107815D02*
D03*
Y108815D02*
D03*
D17*
X58596Y78105D02*
D03*
X56896D02*
D03*
X56183Y99695D02*
D03*
X54483D02*
D03*
X64057Y85725D02*
D03*
X62357D02*
D03*
D18*
X67032Y104688D02*
D03*
X65532D02*
D03*
X64032D02*
D03*
D19*
X65532Y107188D02*
D03*
D20*
X77470Y80645D02*
D03*
Y90170D02*
D03*
D21*
X73533Y84709D02*
D03*
Y82959D02*
D03*
D22*
X61291Y79248D02*
D03*
X72291D02*
D03*
D23*
X62291Y81348D02*
D03*
X63291D02*
D03*
X64291D02*
D03*
X65291D02*
D03*
X66291D02*
D03*
X67291D02*
D03*
X68291D02*
D03*
X69291D02*
D03*
X70291D02*
D03*
X71291D02*
D03*
D24*
X54737Y79883D02*
D03*
Y83083D02*
D03*
D25*
X52578Y97155D02*
D03*
Y94234D02*
D03*
Y91948D02*
D03*
Y89662D02*
D03*
Y87376D02*
D03*
D26*
X67486Y110819D02*
D03*
X66286D02*
D03*
X65086D02*
D03*
X63886D02*
D03*
D27*
X69186Y114519D02*
D03*
X62186D02*
D03*
D28*
X71746Y84690D02*
X73505Y82931D01*
X59662Y99695D02*
Y100429D01*
X60579Y101346D01*
X61722D01*
X65532Y104815D02*
Y107188D01*
X56134Y83566D02*
X56769Y82931D01*
X56134Y83566D02*
Y86967D01*
X62611Y83439D02*
X63291Y82759D01*
Y81348D02*
Y82759D01*
X58039Y83439D02*
X62611D01*
X57404Y84074D02*
X58039Y83439D01*
X57404Y84074D02*
Y86967D01*
X58674Y84328D02*
Y86967D01*
X64291Y81348D02*
Y83156D01*
X59944Y84963D02*
Y86967D01*
X63584Y83863D02*
X64291Y83156D01*
X59139Y83863D02*
X63584D01*
X58674Y84328D02*
X59139Y83863D01*
X59944Y84963D02*
X60644Y84263D01*
X65291Y81348D02*
Y83172D01*
X61087Y85217D02*
Y87602D01*
Y85217D02*
X61595Y84709D01*
X63627Y86155D02*
X64057Y85725D01*
X63627Y86155D02*
Y87602D01*
X64897Y86360D02*
Y87602D01*
Y86360D02*
X65394Y85863D01*
X73505Y82931D02*
X73533Y82959D01*
X66167Y86487D02*
Y87602D01*
Y86487D02*
X66391Y86263D01*
X57101Y78105D02*
X57150Y78154D01*
X54737Y79883D02*
X56515D01*
X56769Y80137D01*
Y78437D02*
Y80137D01*
X58519D02*
Y80363D01*
X73533Y81280D02*
Y82959D01*
Y81280D02*
X74422Y80391D01*
Y79678D02*
Y80391D01*
Y79678D02*
X76503D01*
X77470Y80645D01*
X73533Y84709D02*
Y84963D01*
X74422Y85852D01*
X76073D01*
X77470Y87249D01*
Y90170D01*
Y94996D01*
X77597Y95123D01*
X57277Y99060D02*
X57912Y99695D01*
X64002Y98431D02*
Y99695D01*
Y98431D02*
X64897Y97536D01*
X67437Y94742D02*
Y96802D01*
Y94742D02*
X68377Y93802D01*
X55253Y107815D02*
X56556D01*
X54483Y107045D02*
X55253Y107815D01*
X75819Y105664D02*
X77851D01*
X78232Y105283D01*
X75819Y106664D02*
X77835D01*
X78359Y107188D01*
X66286Y110117D02*
Y110819D01*
X78359Y107188D02*
Y108331D01*
X67486Y110819D02*
Y111965D01*
X61419D02*
X67486D01*
X58269Y108815D02*
X61419Y111965D01*
X56556Y108815D02*
X58269D01*
X74041Y100584D02*
Y106045D01*
X74660Y106664D01*
X75819D01*
X67486Y110819D02*
X70687D01*
X64897Y96802D02*
Y97536D01*
X66167Y96802D02*
Y97663D01*
X55880Y96929D02*
X56007Y96802D01*
X69977D02*
Y100076D01*
X57277Y96802D02*
Y99060D01*
X68580Y96929D02*
Y98933D01*
Y96929D02*
X68707Y96802D01*
X71247Y87602D02*
Y93980D01*
X76835Y109855D02*
X78359Y108331D01*
X67910Y109769D02*
X67996Y109855D01*
X76835D01*
X66634Y109769D02*
X67910D01*
X66286Y110117D02*
X66634Y109769D01*
X71247Y97790D02*
X74041Y100584D01*
X71247Y96802D02*
Y97790D01*
X66802Y99695D02*
Y99786D01*
X74549Y97282D02*
Y103632D01*
X71247Y93980D02*
X74549Y97282D01*
Y103632D02*
X75692Y104775D01*
X77724D01*
X78232Y105283D01*
X78619Y102864D02*
Y104316D01*
X79375Y105072D01*
Y110708D01*
X78619Y111464D02*
X79375Y110708D01*
X60644Y84263D02*
X64200D01*
X65291Y83172D01*
X70485Y85090D02*
X73152D01*
X73533Y84709D01*
X70319Y84690D02*
X71746D01*
X69312Y86263D02*
X70485Y85090D01*
X69146Y85863D02*
X70319Y84690D01*
X68377Y93802D02*
X69291D01*
X66391Y86263D02*
X69312D01*
X65394Y85863D02*
X69146D01*
X67291Y81348D02*
X67310Y81367D01*
Y83439D01*
X69291Y81348D02*
Y83312D01*
X68291Y81348D02*
Y84836D01*
X61595Y84709D02*
X64389D01*
X66291Y82807D01*
Y81348D02*
Y82807D01*
X72291Y79037D02*
Y79248D01*
X67437Y87602D02*
Y89408D01*
X66929Y89916D02*
X67437Y89408D01*
X65278Y89916D02*
X66929D01*
X68707Y87602D02*
Y89916D01*
X67183Y91440D02*
X68707Y89916D01*
X66040Y91440D02*
X67183D01*
X54737Y87503D02*
Y87602D01*
X52578Y87376D02*
X53086Y86868D01*
X54737Y83083D02*
Y87503D01*
X56769Y82931D02*
X60708D01*
X62291Y81348D01*
X53086Y86868D02*
X54102D01*
X54737Y87503D01*
X60706Y90297D02*
X61087D01*
X54737Y96393D02*
Y96802D01*
Y96266D02*
Y96393D01*
X52578Y91948D02*
X53245Y92011D01*
X52832Y92202D02*
X55245D01*
X52578Y91948D02*
X52832Y92202D01*
X56134Y90170D02*
X57023D01*
X55372Y90932D02*
X56134Y90170D01*
X54737Y90932D02*
X55372D01*
X54102Y90297D02*
X54737Y90932D01*
X53340Y90297D02*
X54102D01*
X52705Y89662D02*
X53340Y90297D01*
X52578Y89662D02*
X52705D01*
X56769Y80518D02*
X57150D01*
X56769Y78437D02*
X57101Y78105D01*
X52578Y97155D02*
X53721D01*
D29*
X54737Y96802D02*
Y98044D01*
X54483Y99695D02*
Y100076D01*
X55499Y101092D01*
X56896D01*
X58166Y102362D01*
X65786D01*
X67032Y103608D01*
Y104688D01*
X67834Y103886D02*
X69369D01*
X67032Y104688D02*
X67834Y103886D01*
X54356Y98425D02*
Y99441D01*
X58519Y80363D02*
X59817Y81661D01*
X73406Y86741D02*
Y87835D01*
X70291Y81348D02*
Y82737D01*
X70866Y83312D01*
X54356Y98425D02*
X54737Y98044D01*
X61087Y90297D02*
X62357Y89027D01*
Y87602D02*
Y89027D01*
X69977Y87602D02*
Y91313D01*
Y86487D02*
X70485Y85979D01*
X72644D01*
X73406Y86741D01*
X61087Y90297D02*
Y92456D01*
X62738Y94107D01*
X67183D01*
X69977Y91313D01*
X54737Y96266D02*
X60706Y90297D01*
X52578Y94234D02*
X54737Y96393D01*
X69977Y86487D02*
Y87602D01*
X62357Y85725D02*
Y87602D01*
D30*
X68447Y108585D02*
X70104Y106928D01*
X67050Y107188D02*
X68447Y108585D01*
X74644Y107664D02*
X75819D01*
X73908Y106928D02*
X74644Y107664D01*
X70104Y106928D02*
X73908D01*
X65532Y107188D02*
X67050D01*
X63627D02*
X65532D01*
X61976Y105537D02*
X63627Y107188D01*
X60325Y105537D02*
X61976D01*
X59047Y106815D02*
X60325Y105537D01*
X56556Y106815D02*
X59047D01*
X65086Y107634D02*
Y110819D01*
Y107634D02*
X65532Y107188D01*
D31*
X73406Y98171D02*
D03*
X74168Y94361D02*
D03*
X64643Y78740D02*
D03*
X55118Y94107D02*
D03*
X64389Y92964D02*
D03*
X59436Y93472D02*
D03*
X72136Y101346D02*
D03*
X73279Y108585D02*
D03*
X72644Y114300D02*
D03*
X61214Y107696D02*
D03*
X58293Y111125D02*
D03*
X59944Y114046D02*
D03*
X59817Y81661D02*
D03*
X70866Y83312D02*
D03*
X68580Y98933D02*
D03*
X61087Y90297D02*
D03*
X69977Y100076D02*
D03*
X54483Y107045D02*
D03*
X78359Y107188D02*
D03*
X78232Y105283D02*
D03*
X70687Y110819D02*
D03*
X69291Y93802D02*
D03*
X67310Y83439D02*
D03*
X69291Y83312D02*
D03*
X68291Y84836D02*
D03*
X66040Y91440D02*
D03*
X65278Y89916D02*
D03*
X54356Y78105D02*
D03*
X57023Y90170D02*
D03*
X55245Y92202D02*
D03*
M02*
