G04 Layer_Physical_Order=2*
G04 Layer_Color=16711680*
%FSLAX43Y43*%
%MOMM*%
G71*
G01*
G75*
%ADD28C,0.200*%
%ADD29C,0.300*%
%ADD31C,1.270*%
G36*
X79552Y77095D02*
X54467D01*
X54459Y77222D01*
X54588Y77239D01*
X54804Y77328D01*
X54990Y77471D01*
X55133Y77657D01*
X55222Y77873D01*
X55236Y77978D01*
X53476D01*
X53490Y77873D01*
X53579Y77657D01*
X53722Y77471D01*
X53908Y77328D01*
X54124Y77239D01*
X54253Y77222D01*
X54245Y77095D01*
X51792D01*
Y115594D01*
X79552D01*
Y77095D01*
D02*
G37*
%LPC*%
G36*
X54991Y94987D02*
X54886Y94973D01*
X54670Y94884D01*
X54484Y94741D01*
X54341Y94555D01*
X54252Y94339D01*
X54238Y94234D01*
X54991D01*
Y94987D01*
D02*
G37*
G36*
X55245D02*
Y94234D01*
X55998D01*
X55984Y94339D01*
X55895Y94555D01*
X55752Y94741D01*
X55566Y94884D01*
X55350Y94973D01*
X55245Y94987D01*
D02*
G37*
G36*
X74041Y95241D02*
X73936Y95227D01*
X73720Y95138D01*
X73534Y94995D01*
X73391Y94809D01*
X73302Y94593D01*
X73288Y94488D01*
X74041D01*
Y95241D01*
D02*
G37*
G36*
X75048Y94234D02*
X74295D01*
Y93481D01*
X74400Y93495D01*
X74616Y93584D01*
X74802Y93727D01*
X74945Y93913D01*
X75034Y94129D01*
X75048Y94234D01*
D02*
G37*
G36*
X59309Y94352D02*
X59204Y94338D01*
X58988Y94249D01*
X58802Y94106D01*
X58659Y93920D01*
X58570Y93704D01*
X58556Y93599D01*
X59309D01*
Y94352D01*
D02*
G37*
G36*
X59563D02*
Y93599D01*
X60316D01*
X60302Y93704D01*
X60213Y93920D01*
X60070Y94106D01*
X59884Y94249D01*
X59668Y94338D01*
X59563Y94352D01*
D02*
G37*
G36*
X73279Y99051D02*
X73174Y99037D01*
X72958Y98948D01*
X72772Y98805D01*
X72629Y98619D01*
X72540Y98403D01*
X72526Y98298D01*
X73279D01*
Y99051D01*
D02*
G37*
G36*
X73533D02*
Y98298D01*
X74286D01*
X74272Y98403D01*
X74183Y98619D01*
X74040Y98805D01*
X73854Y98948D01*
X73638Y99037D01*
X73533Y99051D01*
D02*
G37*
G36*
X69977Y100918D02*
X69759Y100890D01*
X69556Y100805D01*
X69381Y100672D01*
X69248Y100497D01*
X69200Y100382D01*
X66802D01*
X66685Y100359D01*
X66586Y100292D01*
X66586Y100292D01*
X65189Y98895D01*
X65122Y98796D01*
X65099Y98679D01*
X65099Y98679D01*
Y95377D01*
X65099Y95377D01*
X65122Y95260D01*
X65189Y95161D01*
X67004Y93345D01*
Y91520D01*
X67000Y91515D01*
X66911Y91521D01*
X66870Y91536D01*
X66854Y91658D01*
X66769Y91861D01*
X66636Y92036D01*
X66461Y92169D01*
X66258Y92254D01*
X66040Y92282D01*
X65822Y92254D01*
X65619Y92169D01*
X65444Y92036D01*
X65311Y91861D01*
X65263Y91746D01*
X64446D01*
X64232Y91960D01*
X64262Y92020D01*
Y92837D01*
X63509D01*
X63523Y92732D01*
X63564Y92632D01*
X63478Y92508D01*
X59763D01*
X59738Y92635D01*
X59884Y92695D01*
X60070Y92838D01*
X60213Y93024D01*
X60302Y93240D01*
X60316Y93345D01*
X58556D01*
X58570Y93240D01*
X58659Y93024D01*
X58802Y92838D01*
X58988Y92695D01*
X59134Y92635D01*
X59109Y92508D01*
X56022D01*
X55974Y92623D01*
X55841Y92798D01*
X55666Y92931D01*
X55463Y93016D01*
X55245Y93044D01*
X55027Y93016D01*
X54824Y92931D01*
X54649Y92798D01*
X54516Y92623D01*
X54431Y92420D01*
X54403Y92202D01*
X54431Y91984D01*
X54516Y91781D01*
X54649Y91606D01*
X54824Y91473D01*
X55027Y91388D01*
X55245Y91360D01*
X55463Y91388D01*
X55666Y91473D01*
X55841Y91606D01*
X55974Y91781D01*
X56022Y91896D01*
X63431D01*
X63591Y91736D01*
X63542Y91619D01*
X58166D01*
X58049Y91596D01*
X57950Y91529D01*
X57356Y90936D01*
X57241Y90984D01*
X57023Y91012D01*
X56805Y90984D01*
X56602Y90899D01*
X56427Y90766D01*
X56294Y90591D01*
X56209Y90388D01*
X56181Y90170D01*
X56209Y89952D01*
X56294Y89749D01*
X56427Y89574D01*
X56602Y89441D01*
X56805Y89356D01*
X57023Y89328D01*
X57241Y89356D01*
X57444Y89441D01*
X57619Y89574D01*
X57752Y89749D01*
X57837Y89952D01*
X57865Y90170D01*
X57837Y90388D01*
X57789Y90503D01*
X58293Y91007D01*
X60453D01*
X60460Y90986D01*
X60482Y90880D01*
X60358Y90718D01*
X60273Y90515D01*
X60245Y90297D01*
X60273Y90079D01*
X60337Y89925D01*
X59565Y89152D01*
X59487Y89037D01*
X59460Y88900D01*
Y82417D01*
X59396Y82390D01*
X59221Y82257D01*
X59088Y82082D01*
X59003Y81879D01*
X58975Y81661D01*
X59003Y81443D01*
X59088Y81240D01*
X59221Y81065D01*
X59396Y80932D01*
X59599Y80847D01*
X59817Y80819D01*
X60035Y80847D01*
X60238Y80932D01*
X60413Y81065D01*
X60546Y81240D01*
X60573Y81304D01*
X69215D01*
X69352Y81331D01*
X69467Y81409D01*
X70584Y82525D01*
X70648Y82498D01*
X70866Y82470D01*
X71084Y82498D01*
X71287Y82583D01*
X71462Y82716D01*
X71595Y82891D01*
X71680Y83094D01*
X71708Y83312D01*
X71680Y83530D01*
X71595Y83733D01*
X71462Y83908D01*
X71287Y84041D01*
X71084Y84126D01*
X70866Y84154D01*
X70648Y84126D01*
X70445Y84041D01*
X70270Y83908D01*
X70150Y83751D01*
X70078Y83741D01*
X70007Y83751D01*
X69887Y83908D01*
X69712Y84041D01*
X69597Y84089D01*
Y93025D01*
X69712Y93073D01*
X69887Y93206D01*
X70020Y93381D01*
X70105Y93584D01*
X70133Y93802D01*
X70105Y94020D01*
X70020Y94223D01*
X69887Y94398D01*
X69712Y94531D01*
X69509Y94616D01*
X69291Y94644D01*
X69073Y94616D01*
X68870Y94531D01*
X68695Y94398D01*
X68617Y94295D01*
X68603Y94287D01*
X68456Y94283D01*
X68456Y94283D01*
X66727Y96012D01*
Y98044D01*
X67310Y98627D01*
X67803D01*
X67851Y98512D01*
X67984Y98337D01*
X68159Y98204D01*
X68362Y98119D01*
X68580Y98091D01*
X68798Y98119D01*
X69001Y98204D01*
X69176Y98337D01*
X69309Y98512D01*
X69394Y98715D01*
X69422Y98933D01*
X69394Y99151D01*
X69309Y99354D01*
X69176Y99529D01*
X69026Y99643D01*
X69048Y99749D01*
X69059Y99770D01*
X69200D01*
X69248Y99655D01*
X69381Y99480D01*
X69556Y99347D01*
X69759Y99262D01*
X69977Y99234D01*
X70195Y99262D01*
X70398Y99347D01*
X70573Y99480D01*
X70706Y99655D01*
X70791Y99858D01*
X70819Y100076D01*
X70791Y100294D01*
X70706Y100497D01*
X70573Y100672D01*
X70398Y100805D01*
X70195Y100890D01*
X69977Y100918D01*
D02*
G37*
G36*
X74295Y95241D02*
Y94488D01*
X75048D01*
X75034Y94593D01*
X74945Y94809D01*
X74802Y94995D01*
X74616Y95138D01*
X74400Y95227D01*
X74295Y95241D01*
D02*
G37*
G36*
X73279Y98044D02*
X72526D01*
X72540Y97939D01*
X72629Y97723D01*
X72772Y97537D01*
X72958Y97394D01*
X73174Y97305D01*
X73279Y97291D01*
Y98044D01*
D02*
G37*
G36*
X74286D02*
X73533D01*
Y97291D01*
X73638Y97305D01*
X73854Y97394D01*
X74040Y97537D01*
X74183Y97723D01*
X74272Y97939D01*
X74286Y98044D01*
D02*
G37*
G36*
X54483Y78985D02*
Y78232D01*
X55236D01*
X55222Y78337D01*
X55133Y78553D01*
X54990Y78739D01*
X54804Y78882D01*
X54588Y78971D01*
X54483Y78985D01*
D02*
G37*
G36*
X64516Y79620D02*
X64411Y79606D01*
X64195Y79517D01*
X64009Y79374D01*
X63866Y79188D01*
X63777Y78972D01*
X63763Y78867D01*
X64516D01*
Y79620D01*
D02*
G37*
G36*
X64770D02*
Y78867D01*
X65523D01*
X65509Y78972D01*
X65420Y79188D01*
X65277Y79374D01*
X65091Y79517D01*
X64875Y79606D01*
X64770Y79620D01*
D02*
G37*
G36*
X64516Y78613D02*
X63763D01*
X63777Y78508D01*
X63866Y78292D01*
X64009Y78106D01*
X64195Y77963D01*
X64411Y77874D01*
X64516Y77860D01*
Y78613D01*
D02*
G37*
G36*
X65523D02*
X64770D01*
Y77860D01*
X64875Y77874D01*
X65091Y77963D01*
X65277Y78106D01*
X65420Y78292D01*
X65509Y78508D01*
X65523Y78613D01*
D02*
G37*
G36*
X54229Y78985D02*
X54124Y78971D01*
X53908Y78882D01*
X53722Y78739D01*
X53579Y78553D01*
X53490Y78337D01*
X53476Y78232D01*
X54229D01*
Y78985D01*
D02*
G37*
G36*
X54991Y93980D02*
X54238D01*
X54252Y93875D01*
X54341Y93659D01*
X54484Y93473D01*
X54670Y93330D01*
X54886Y93241D01*
X54991Y93227D01*
Y93980D01*
D02*
G37*
G36*
X55998D02*
X55245D01*
Y93227D01*
X55350Y93241D01*
X55566Y93330D01*
X55752Y93473D01*
X55895Y93659D01*
X55984Y93875D01*
X55998Y93980D01*
D02*
G37*
G36*
X74041Y94234D02*
X73288D01*
X73302Y94129D01*
X73391Y93913D01*
X73534Y93727D01*
X73720Y93584D01*
X73936Y93495D01*
X74041Y93481D01*
Y94234D01*
D02*
G37*
G36*
X65269Y92837D02*
X64516D01*
Y92084D01*
X64621Y92098D01*
X64837Y92187D01*
X65023Y92330D01*
X65166Y92516D01*
X65255Y92732D01*
X65269Y92837D01*
D02*
G37*
G36*
X64262Y93844D02*
X64157Y93830D01*
X63941Y93741D01*
X63755Y93598D01*
X63612Y93412D01*
X63523Y93196D01*
X63509Y93091D01*
X64262D01*
Y93844D01*
D02*
G37*
G36*
X64516D02*
Y93091D01*
X65269D01*
X65255Y93196D01*
X65166Y93412D01*
X65023Y93598D01*
X64837Y93741D01*
X64621Y93830D01*
X64516Y93844D01*
D02*
G37*
G36*
X58420Y112005D02*
Y111252D01*
X59173D01*
X59159Y111357D01*
X59070Y111573D01*
X58927Y111759D01*
X58741Y111902D01*
X58525Y111991D01*
X58420Y112005D01*
D02*
G37*
G36*
X59817Y113919D02*
X59064D01*
X59078Y113814D01*
X59167Y113598D01*
X59310Y113412D01*
X59496Y113269D01*
X59712Y113180D01*
X59817Y113166D01*
Y113919D01*
D02*
G37*
G36*
X60824D02*
X60071D01*
Y113166D01*
X60176Y113180D01*
X60392Y113269D01*
X60578Y113412D01*
X60721Y113598D01*
X60810Y113814D01*
X60824Y113919D01*
D02*
G37*
G36*
X58166Y110998D02*
X57413D01*
X57427Y110893D01*
X57516Y110677D01*
X57659Y110491D01*
X57845Y110348D01*
X58061Y110259D01*
X58166Y110245D01*
Y110998D01*
D02*
G37*
G36*
X59173D02*
X58420D01*
Y110245D01*
X58525Y110259D01*
X58741Y110348D01*
X58927Y110491D01*
X59070Y110677D01*
X59159Y110893D01*
X59173Y110998D01*
D02*
G37*
G36*
X58166Y112005D02*
X58061Y111991D01*
X57845Y111902D01*
X57659Y111759D01*
X57516Y111573D01*
X57427Y111357D01*
X57413Y111252D01*
X58166D01*
Y112005D01*
D02*
G37*
G36*
X60071Y114926D02*
Y114173D01*
X60824D01*
X60810Y114278D01*
X60721Y114494D01*
X60578Y114680D01*
X60392Y114823D01*
X60176Y114912D01*
X60071Y114926D01*
D02*
G37*
G36*
X72517Y115180D02*
X72412Y115166D01*
X72196Y115077D01*
X72010Y114934D01*
X71867Y114748D01*
X71778Y114532D01*
X71764Y114427D01*
X72517D01*
Y115180D01*
D02*
G37*
G36*
X72771D02*
Y114427D01*
X73524D01*
X73510Y114532D01*
X73421Y114748D01*
X73278Y114934D01*
X73092Y115077D01*
X72876Y115166D01*
X72771Y115180D01*
D02*
G37*
G36*
X72517Y114173D02*
X71764D01*
X71778Y114068D01*
X71867Y113852D01*
X72010Y113666D01*
X72196Y113523D01*
X72412Y113434D01*
X72517Y113420D01*
Y114173D01*
D02*
G37*
G36*
X73524D02*
X72771D01*
Y113420D01*
X72876Y113434D01*
X73092Y113523D01*
X73278Y113666D01*
X73421Y113852D01*
X73510Y114068D01*
X73524Y114173D01*
D02*
G37*
G36*
X59817Y114926D02*
X59712Y114912D01*
X59496Y114823D01*
X59310Y114680D01*
X59167Y114494D01*
X59078Y114278D01*
X59064Y114173D01*
X59817D01*
Y114926D01*
D02*
G37*
G36*
X73406Y109465D02*
Y108712D01*
X74159D01*
X74145Y108817D01*
X74056Y109033D01*
X73913Y109219D01*
X73727Y109362D01*
X73511Y109451D01*
X73406Y109465D01*
D02*
G37*
G36*
X75057Y112955D02*
X75057Y112955D01*
X57531D01*
X57414Y112932D01*
X57315Y112865D01*
X57315Y112865D01*
X54267Y109817D01*
X54200Y109718D01*
X54177Y109601D01*
X54177Y109601D01*
Y107822D01*
X54062Y107774D01*
X53887Y107641D01*
X53754Y107466D01*
X53669Y107263D01*
X53641Y107045D01*
X53669Y106827D01*
X53754Y106624D01*
X53887Y106449D01*
X54062Y106316D01*
X54265Y106231D01*
X54483Y106203D01*
X54701Y106231D01*
X54904Y106316D01*
X55079Y106449D01*
X55212Y106624D01*
X55297Y106827D01*
X55325Y107045D01*
X55297Y107263D01*
X55212Y107466D01*
X55079Y107641D01*
X54904Y107774D01*
X54789Y107822D01*
Y109474D01*
X57658Y112343D01*
X74930D01*
X78053Y109220D01*
Y107965D01*
X77938Y107917D01*
X77763Y107784D01*
X77630Y107609D01*
X77545Y107406D01*
X77528Y107271D01*
X77522Y107227D01*
X77395Y107235D01*
Y108585D01*
X77372Y108702D01*
X77305Y108801D01*
X77305Y108801D01*
X75071Y111035D01*
X74972Y111102D01*
X74855Y111125D01*
X74855Y111125D01*
X71464D01*
X71416Y111240D01*
X71283Y111415D01*
X71108Y111548D01*
X70905Y111633D01*
X70687Y111661D01*
X70469Y111633D01*
X70266Y111548D01*
X70091Y111415D01*
X69958Y111240D01*
X69873Y111037D01*
X69845Y110819D01*
X69873Y110601D01*
X69958Y110398D01*
X70091Y110223D01*
X70266Y110090D01*
X70469Y110005D01*
X70687Y109977D01*
X70905Y110005D01*
X71108Y110090D01*
X71283Y110223D01*
X71416Y110398D01*
X71464Y110513D01*
X74728D01*
X76783Y108458D01*
Y106426D01*
X76783Y106426D01*
X76806Y106309D01*
X76873Y106210D01*
X77466Y105616D01*
X77418Y105501D01*
X77390Y105283D01*
X77418Y105065D01*
X77503Y104862D01*
X77636Y104687D01*
X77811Y104554D01*
X78014Y104469D01*
X78232Y104441D01*
X78450Y104469D01*
X78653Y104554D01*
X78828Y104687D01*
X78961Y104862D01*
X79046Y105065D01*
X79074Y105283D01*
X79046Y105501D01*
X78961Y105704D01*
X78828Y105879D01*
X78653Y106012D01*
X78450Y106097D01*
X78232Y106125D01*
X78014Y106097D01*
X77899Y106049D01*
X77395Y106553D01*
Y107141D01*
X77522Y107149D01*
X77528Y107105D01*
X77545Y106970D01*
X77630Y106767D01*
X77763Y106592D01*
X77938Y106459D01*
X78141Y106374D01*
X78359Y106346D01*
X78577Y106374D01*
X78780Y106459D01*
X78955Y106592D01*
X79088Y106767D01*
X79173Y106970D01*
X79201Y107188D01*
X79173Y107406D01*
X79088Y107609D01*
X78955Y107784D01*
X78780Y107917D01*
X78665Y107965D01*
Y109347D01*
X78665Y109347D01*
X78642Y109464D01*
X78575Y109563D01*
X78575Y109563D01*
X75273Y112865D01*
X75174Y112932D01*
X75057Y112955D01*
D02*
G37*
G36*
X72009Y102226D02*
X71904Y102212D01*
X71688Y102123D01*
X71502Y101980D01*
X71359Y101794D01*
X71270Y101578D01*
X71256Y101473D01*
X72009D01*
Y102226D01*
D02*
G37*
G36*
X73016Y101219D02*
X72263D01*
Y100466D01*
X72368Y100480D01*
X72584Y100569D01*
X72770Y100712D01*
X72913Y100898D01*
X73002Y101114D01*
X73016Y101219D01*
D02*
G37*
G36*
X72263Y102226D02*
Y101473D01*
X73016D01*
X73002Y101578D01*
X72913Y101794D01*
X72770Y101980D01*
X72584Y102123D01*
X72368Y102212D01*
X72263Y102226D01*
D02*
G37*
G36*
X61087Y107569D02*
X60334D01*
X60348Y107464D01*
X60437Y107248D01*
X60580Y107062D01*
X60766Y106919D01*
X60982Y106830D01*
X61087Y106816D01*
Y107569D01*
D02*
G37*
G36*
X62094D02*
X61341D01*
Y106816D01*
X61446Y106830D01*
X61662Y106919D01*
X61848Y107062D01*
X61991Y107248D01*
X62080Y107464D01*
X62094Y107569D01*
D02*
G37*
G36*
X61087Y108576D02*
X60982Y108562D01*
X60766Y108473D01*
X60580Y108330D01*
X60437Y108144D01*
X60348Y107928D01*
X60334Y107823D01*
X61087D01*
Y108576D01*
D02*
G37*
G36*
X61341D02*
Y107823D01*
X62094D01*
X62080Y107928D01*
X61991Y108144D01*
X61848Y108330D01*
X61662Y108473D01*
X61446Y108562D01*
X61341Y108576D01*
D02*
G37*
G36*
X73152Y109465D02*
X73047Y109451D01*
X72831Y109362D01*
X72645Y109219D01*
X72502Y109033D01*
X72413Y108817D01*
X72399Y108712D01*
X73152D01*
Y109465D01*
D02*
G37*
G36*
X72009Y101219D02*
X71256D01*
X71270Y101114D01*
X71359Y100898D01*
X71502Y100712D01*
X71688Y100569D01*
X71904Y100480D01*
X72009Y100466D01*
Y101219D01*
D02*
G37*
G36*
X73152Y108458D02*
X72399D01*
X72413Y108353D01*
X72502Y108137D01*
X72645Y107951D01*
X72831Y107808D01*
X73047Y107719D01*
X73152Y107705D01*
Y108458D01*
D02*
G37*
G36*
X74159D02*
X73406D01*
Y107705D01*
X73511Y107719D01*
X73727Y107808D01*
X73913Y107951D01*
X74056Y108137D01*
X74145Y108353D01*
X74159Y108458D01*
D02*
G37*
%LPD*%
G36*
X67004Y91360D02*
Y84216D01*
X66889Y84168D01*
X66714Y84035D01*
X66581Y83860D01*
X66496Y83657D01*
X66468Y83439D01*
X66496Y83221D01*
X66581Y83018D01*
X66714Y82843D01*
X66889Y82710D01*
X67092Y82625D01*
X67310Y82597D01*
X67528Y82625D01*
X67731Y82710D01*
X67906Y82843D01*
X68039Y83018D01*
X68124Y83221D01*
X68152Y83439D01*
X68124Y83657D01*
X68039Y83860D01*
X67996Y83917D01*
X68070Y84018D01*
X68075Y84022D01*
X68291Y83994D01*
X68509Y84022D01*
X68712Y84107D01*
X68792Y84168D01*
X68921Y84107D01*
X68923Y84063D01*
X68870Y84041D01*
X68695Y83908D01*
X68562Y83733D01*
X68477Y83530D01*
X68449Y83312D01*
X68477Y83094D01*
X68562Y82891D01*
X68695Y82716D01*
X68870Y82583D01*
X69073Y82498D01*
X69291Y82470D01*
X69347Y82477D01*
X69406Y82357D01*
X69067Y82018D01*
X60573D01*
X60546Y82082D01*
X60413Y82257D01*
X60238Y82390D01*
X60174Y82417D01*
Y88752D01*
X60901Y89479D01*
X61087Y89455D01*
X61305Y89483D01*
X61508Y89568D01*
X61683Y89701D01*
X61816Y89876D01*
X61901Y90079D01*
X61929Y90297D01*
X61901Y90515D01*
X61816Y90718D01*
X61692Y90880D01*
X61714Y90986D01*
X61721Y91007D01*
X63754D01*
X64512Y90249D01*
X64464Y90134D01*
X64436Y89916D01*
X64464Y89698D01*
X64549Y89495D01*
X64682Y89320D01*
X64857Y89187D01*
X65060Y89102D01*
X65278Y89074D01*
X65496Y89102D01*
X65699Y89187D01*
X65874Y89320D01*
X66007Y89495D01*
X66092Y89698D01*
X66120Y89916D01*
X66092Y90134D01*
X66007Y90337D01*
X65891Y90489D01*
X65919Y90568D01*
X65953Y90609D01*
X66040Y90598D01*
X66258Y90626D01*
X66461Y90711D01*
X66636Y90844D01*
X66769Y91019D01*
X66854Y91222D01*
X66870Y91344D01*
X66911Y91359D01*
X67000Y91365D01*
X67004Y91360D01*
D02*
G37*
G36*
X68112Y99749D02*
X68134Y99643D01*
X67984Y99529D01*
X67851Y99354D01*
X67803Y99239D01*
X67183D01*
X67066Y99216D01*
X66967Y99149D01*
X66205Y98387D01*
X66138Y98288D01*
X66115Y98171D01*
X66115Y98171D01*
Y95885D01*
X66115Y95885D01*
X66138Y95768D01*
X66205Y95669D01*
X67985Y93888D01*
Y85613D01*
X67870Y85565D01*
X67743Y85468D01*
X67616Y85528D01*
Y93472D01*
X67593Y93589D01*
X67526Y93688D01*
X65711Y95504D01*
Y98552D01*
X66929Y99770D01*
X68101D01*
X68112Y99749D01*
D02*
G37*
G36*
X68870Y93073D02*
X68985Y93025D01*
Y85495D01*
X68858Y85453D01*
X68712Y85565D01*
X68597Y85613D01*
Y93143D01*
X68724Y93185D01*
X68870Y93073D01*
D02*
G37*
D28*
X65405Y95377D02*
Y98679D01*
X66421Y95885D02*
Y98171D01*
X67183Y98933D01*
X68580D01*
X68707D01*
X66802Y100076D02*
X69977D01*
X65405Y98679D02*
X66802Y100076D01*
X78216Y107045D02*
X78359Y107188D01*
X54483Y107045D02*
Y109601D01*
X57531Y112649D01*
X75057D01*
X78359Y109347D01*
Y107188D02*
Y109347D01*
X70687Y110819D02*
X74855D01*
X77089Y108585D01*
Y106426D02*
Y108585D01*
Y106426D02*
X78232Y105283D01*
X66421Y95885D02*
X68291Y94015D01*
X67310Y83439D02*
Y93472D01*
X65405Y95377D02*
X67310Y93472D01*
X69291Y83312D02*
Y93802D01*
X68291Y84836D02*
Y94015D01*
X63881Y91313D02*
X65278Y89916D01*
X64320Y91440D02*
X66040D01*
X57023Y90170D02*
X58166Y91313D01*
X63881D01*
X63558Y92202D02*
X64320Y91440D01*
X55245Y92202D02*
X63558D01*
D29*
X59817Y81661D02*
Y88900D01*
X61087Y90170D01*
Y90297D01*
X69215Y81661D02*
X70866Y83312D01*
X59817Y81661D02*
X69215D01*
D31*
X73406Y98171D02*
D03*
X74168Y94361D02*
D03*
X64643Y78740D02*
D03*
X55118Y94107D02*
D03*
X64389Y92964D02*
D03*
X59436Y93472D02*
D03*
X72136Y101346D02*
D03*
X73279Y108585D02*
D03*
X72644Y114300D02*
D03*
X61214Y107696D02*
D03*
X58293Y111125D02*
D03*
X59944Y114046D02*
D03*
X59817Y81661D02*
D03*
X70866Y83312D02*
D03*
X68580Y98933D02*
D03*
X61087Y90297D02*
D03*
X69977Y100076D02*
D03*
X54483Y107045D02*
D03*
X78359Y107188D02*
D03*
X78232Y105283D02*
D03*
X70687Y110819D02*
D03*
X69291Y93802D02*
D03*
X67310Y83439D02*
D03*
X69291Y83312D02*
D03*
X68291Y84836D02*
D03*
X66040Y91440D02*
D03*
X65278Y89916D02*
D03*
X54356Y78105D02*
D03*
X57023Y90170D02*
D03*
X55245Y92202D02*
D03*
M02*
